<?xml version="1.0" encoding="utf-8"?>
<!-- Generator: Adobe Illustrator 28.0.0, SVG Export Plug-In . SVG Version: 6.00 Build 0)  -->
<svg version="1.1" xmlns="http://www.w3.org/2000/svg" xmlns:xlink="http://www.w3.org/1999/xlink" x="0px" y="0px"
	 viewBox="0 0 468 108" style="enable-background:new 0 0 468 108;" xml:space="preserve">
<style type="text/css">
	.st0{display:none;}
	.st1{display:inline;fill:url(#SVGID_1_);}
	.st2{display:inline;}
	.st3{display:inline;fill:#2B3D49;}
	.st4{display:inline;fill:url(#SVGID_00000156564711229212651750000003218934094780984498_);}
	.st5{display:inline;fill:url(#SVGID_00000147199287567157677460000010369136785342792576_);}
	.st6{display:inline;fill:url(#SVGID_00000144337230529606969220000004158991707275008401_);}
	.st7{display:inline;fill:url(#SVGID_00000131356860073791512700000005220973035802484124_);}
	.st8{display:inline;fill:url(#SVGID_00000094576443094084059710000000373823505465032890_);}
	.st9{display:inline;fill:url(#SVGID_00000104671734155398510690000002641931931334150062_);}
	.st10{display:inline;fill:url(#SVGID_00000048469819920625571800000003352927751318243210_);}
	.st11{display:inline;fill:#C3C5C8;}
	.st12{display:inline;fill:url(#SVGID_00000125560741237282187320000014673841360656945588_);}
	.st13{fill:#FFFFFF;}
	.st14{fill:#411F1F;}
	.st15{fill:#C3C5C8;}
	.st16{fill:#2B3D49;}
	.st17{fill:#FFFFFF;stroke:url(#SVGID_00000145751828464651671640000014366357612163650689_);stroke-miterlimit:10;}
	.st18{fill:#F19933;}
	.st19{fill:#D73F22;}
	.st20{fill:#FBE343;}
	.st21{fill:#768591;}
	.st22{fill:url(#SVGID_00000055698159047014050240000015146009682720319393_);}
	.st23{fill:url(#SVGID_00000154401119230633781000000013519695839382520467_);}
	.st24{fill:url(#SVGID_00000111184700737491882200000011760770971183542184_);}
	.st25{fill:url(#SVGID_00000013156308607597595180000013857074747071178421_);}
	.st26{fill:url(#SVGID_00000129178228214838691170000002172169968972915111_);}
	.st27{fill:url(#SVGID_00000007407543574408057500000010170211861051859881_);}
	.st28{fill:url(#SVGID_00000093896172116732454570000005214341785022843269_);}
	.st29{fill:url(#SVGID_00000002376404372340800420000003499161090913668251_);}
	.st30{fill:url(#SVGID_00000112616634355588751670000013932891911675939466_);}
	.st31{fill:url(#SVGID_00000164508124022810262410000015461970519759684520_);}
	.st32{fill:url(#SVGID_00000183211845170626650220000007695090114647738526_);}
	.st33{fill:url(#SVGID_00000003803740528542707330000015095608035245171879_);}
	.st34{fill:url(#SVGID_00000007389836308525123520000005990759834833020037_);}
	.st35{fill:url(#SVGID_00000080886203265020151180000016263499376705606529_);}
	.st36{fill:url(#SVGID_00000041296893630848872880000003858003183887531670_);}
	.st37{fill:none;}
	.st38{fill:url(#SVGID_00000072997503010868404740000007159685056786568624_);}
	.st39{fill:url(#SVGID_00000005986032272919837700000013406159093155934888_);}
	.st40{fill:url(#SVGID_00000030448777051084687650000009962373710964335745_);}
	.st41{fill:url(#SVGID_00000020399949153263854640000001523152806604184743_);}
	.st42{fill:url(#SVGID_00000015356468030508746400000016757853477840411055_);}
	.st43{fill:url(#SVGID_00000149366605584954647880000005333269538238095769_);}
	.st44{fill:url(#SVGID_00000034070262039709791600000005592079703543310490_);}
	.st45{fill:url(#SVGID_00000115486622850906686750000004301763783144264088_);}
	.st46{fill:url(#SVGID_00000118386730095235529190000003001131118961971875_);}
	.st47{fill:url(#SVGID_00000132809397084949857350000000991088054403385777_);}
	.st48{fill:url(#SVGID_00000065034757411199949290000014615204690941730204_);}
	.st49{fill:url(#SVGID_00000119819955578505311920000013736265467113808571_);}
	.st50{fill:url(#SVGID_00000004515439834896839980000014267152157299399856_);}
	.st51{fill:url(#SVGID_00000062905938996395688510000018129898705667896747_);}
	.st52{fill:url(#SVGID_00000078741589568589971500000016983959987971232672_);}
</style>
<g id="BG_COLORS__x26__INFO" class="st0">
	<linearGradient id="SVGID_1_" gradientUnits="userSpaceOnUse" x1="234" y1="107.9633" x2="234" y2="0.0367">
		<stop  offset="0" style="stop-color:#32424C"/>
		<stop  offset="1" style="stop-color:#000000"/>
	</linearGradient>
	<rect y="0.04" class="st1" width="468" height="107.93"/>
	<g id="Layer_15" class="st2">
	</g>
</g>
<g id="INFORMATION">
</g>
<g id="ELEMENTS">
</g>
<g id="GRD_SIG_WHT">
	<g>
		<g>
			<path class="st13" d="M108.5,61.62c-0.02-0.2-0.08-0.45-0.08-0.7c-0.01-2.57-0.01-5.13,0-7.7c0-0.28,0.06-0.56,0.08-0.73
				c0.25-0.35,0.49-0.48,0.8-0.48c0.28-0.01,0.57-0.01,0.86-0.01c4.75,0,9.5,0,14.25,0c0.34,0,0.69,0.05,1.04-0.08
				c0.13-0.39,0.12-0.75,0.02-1.15c-0.34-0.15-0.7-0.09-1.03-0.09c-4.78,0-9.57,0-14.35,0c-0.25,0-0.51,0-0.76-0.01
				c-0.3-0.01-0.55-0.12-0.78-0.43c-0.03-0.12-0.11-0.3-0.11-0.48c-0.02-0.82-0.02-1.65-0.01-2.47c0-0.4,0.13-0.75,0.64-0.96
				c0.21-0.01,0.53-0.02,0.84-0.02c5.35,0,10.71,0,16.06,0c0.57,0,1.14,0.02,1.69,0.18c1.1,0.32,1.82,1.03,2.08,2.13
				c0.3,1.28,0.28,2.58,0.02,3.87c-0.08,0.41-0.26,0.78-0.52,1.11c-0.16,0.2-0.32,0.39-0.48,0.58c0.03,0.07,0.04,0.14,0.09,0.18
				c0.82,0.77,1.06,1.77,1.08,2.85c0.01,0.76,0.04,1.52-0.11,2.27c-0.28,1.42-1.08,2.24-2.5,2.5c-0.34,0.06-0.69,0.09-1.04,0.09
				c-5.51,0.01-11.02,0-16.53,0C109.34,62.05,108.91,62.12,108.5,61.62z M112.91,57.71c4.21,0,8.35,0,12.48,0
				c0.18-0.64,0.18-0.64,0.03-1.24c-0.83-0.13-7.72-0.18-11.95-0.08c-0.18,0-0.36,0.04-0.56,0.06
				C112.79,56.85,112.79,57.22,112.91,57.71z"/>
			<path class="st13" d="M78.9,46.33c0.21-0.01,0.53-0.03,0.84-0.03c5.39,0,10.77,0,16.16,0c0.54,0,1.07,0.02,1.6,0.17
				c1.06,0.31,1.77,0.96,2.07,2.03c0.11,0.39,0.19,0.81,0.2,1.21c0.03,1.08,0.03,2.15,0.01,3.23c-0.05,2.2-1.24,3.37-3.46,3.44
				c-0.28,0.01-0.56,0-0.96,0c0.15,0.24,0.22,0.4,0.34,0.52c1.11,1.13,2.24,2.24,3.36,3.37c0.24,0.24,0.47,0.51,0.73,0.79
				c-0.07,0.23-0.09,0.45-0.19,0.63c-0.13,0.24-0.38,0.32-0.64,0.35c-0.16,0.02-0.32,0.02-0.47,0.02c-0.86,0-1.71,0.01-2.57,0
				c-0.28,0-0.56-0.04-0.88-0.07c-1.86-1.86-3.72-3.72-5.55-5.54c-1.03-0.1-5.97-0.08-6.75,0.02c-0.02,0.16-0.07,0.34-0.07,0.52
				c-0.01,1.2,0,2.41-0.01,3.61c0,0.34-0.03,0.69-0.04,0.92c-0.22,0.39-0.46,0.52-0.77,0.53c-0.92,0.01-1.84,0.01-2.76-0.01
				c-0.18,0-0.36-0.11-0.47-0.14c-0.36-0.34-0.34-0.73-0.34-1.11c0-1.84,0-3.68,0-5.51c0-0.63,0-1.27,0-1.9
				c0-0.19-0.01-0.38,0.02-0.57c0.07-0.46,0.35-0.74,0.82-0.78C79.4,51.99,79.69,52,79.97,52c4.75,0,9.51,0,14.26,0
				c0.34,0,0.69-0.02,1.06-0.03c0.16-0.4,0.12-0.77,0.07-1.13c-0.25-0.24-0.55-0.16-0.83-0.16c-2.12-0.01-4.25,0-6.37,0
				c-2.79,0-5.58,0-8.36,0c-0.41,0-0.83,0.07-1.2-0.23c-0.26-0.25-0.32-0.59-0.31-0.94c0-0.7,0-1.39,0-2.09
				C78.27,46.98,78.38,46.6,78.9,46.33z"/>
			<path class="st13" d="M149.26,62.05c-2.31,0-4.62,0.01-6.93-0.01c-0.5,0-1.02-0.04-1.5-0.16c-1.03-0.25-1.72-0.92-2.04-1.93
				c-0.14-0.45-0.22-0.93-0.22-1.4c-0.02-2.91-0.02-5.83,0-8.74c0-0.44,0.08-0.89,0.19-1.31c0.28-1.02,0.94-1.72,1.97-2
				c0.45-0.13,0.93-0.2,1.4-0.2c4.78-0.01,9.56-0.01,14.34,0c0.47,0,0.95,0.07,1.4,0.2c0.98,0.28,1.65,0.92,1.95,1.91
				c0.13,0.45,0.22,0.93,0.22,1.4c0.02,2.91,0.02,5.83,0,8.74c0,0.47-0.09,0.95-0.22,1.4c-0.3,1.02-0.99,1.69-2.03,1.93
				c-0.49,0.12-1,0.16-1.5,0.16C153.95,62.06,151.61,62.05,149.26,62.05z M155.63,50.73c-0.28-0.02-0.46-0.05-0.65-0.05
				c-0.47-0.01-0.95,0-1.42,0c-3.23,0-6.45,0-9.68,0c-0.3,0-0.63-0.1-0.92,0.17c-0.01,0.21-0.03,0.42-0.03,0.64
				c0.01,1.99,0.02,3.98,0.03,5.98c0,0.03,0.02,0.06,0.03,0.08c0.02,0.03,0.04,0.04,0.11,0.1c0.08,0.01,0.2,0.04,0.32,0.04
				c3.92,0,7.84,0,11.77,0c0.15,0,0.29-0.07,0.45-0.1C155.63,55.31,155.63,53.07,155.63,50.73z"/>
			<path class="st13" d="M48.25,50.2c-0.2-0.82-0.01-1.61,0.38-2.36c0.36-0.68,0.94-1.12,1.66-1.33c0.42-0.12,0.87-0.21,1.31-0.21
				c4.88-0.01,9.76-0.01,14.64,0c0.41,0,0.82,0.07,1.21,0.19c1.02,0.3,1.71,0.97,1.98,1.99c0.14,0.51,0.21,1.06,0.21,1.59
				c0.02,3.55,0.01,7.1,0.01,10.65c0,0.35,0.03,0.7-0.25,1.06c-0.13,0.15-0.36,0.25-0.62,0.25c-0.89,0-1.77,0.01-2.66-0.01
				c-0.26,0-0.5-0.09-0.69-0.33c-0.2-0.28-0.16-0.64-0.16-0.99c0-1.17,0-2.35,0-3.52c0-0.24-0.04-0.49-0.06-0.73
				c-0.14-0.04-0.23-0.08-0.32-0.08c-4.02,0-8.05,0.01-12.07,0.02c-0.05,0-0.11,0.05-0.22,0.11c-0.01,0.21-0.05,0.46-0.05,0.7
				c-0.01,1.17,0,2.35,0,3.52c0,0.35,0.02,0.7-0.22,1.03c-0.18,0.22-0.45,0.29-0.75,0.29c-0.82,0-1.65,0-2.47,0
				c-0.33,0-0.63-0.07-0.89-0.49c-0.01-0.2-0.05-0.51-0.05-0.82c-0.01-2.47,0-4.94,0-7.42c0-0.28,0.03-0.56,0.04-0.75
				c0.21-0.4,0.47-0.55,0.82-0.57C49.28,52,49.53,52,49.79,52c4.79,0,9.57,0,14.36,0c0.34,0,0.69,0.06,1.06-0.08
				c0.11-0.38,0.1-0.74,0.01-1.14c-0.35-0.15-0.7-0.09-1.04-0.09c-4.79,0-9.57,0-14.36,0c-0.25,0-0.51,0-0.76-0.01
				C48.76,50.66,48.51,50.56,48.25,50.2z"/>
			<path class="st13" d="M36.23,46.35c1.12,1.04,2.2,2.1,3.15,3.15c0.12,0.37,0.1,0.61-0.07,0.82c-0.17,0.21-0.39,0.32-0.66,0.34
				c-0.28,0.02-0.57,0.02-0.85,0.02c-4.75,0-9.51,0-14.26,0c-0.34,0-0.69-0.07-1.08,0.1c-0.14,0.73-0.05,1.49-0.07,2.24
				c-0.02,0.76-0.01,1.52,0,2.28c0,0.76,0.01,1.51,0.01,2.28c0.37,0.19,0.73,0.12,1.06,0.12c3.87,0.01,7.73,0,11.6,0
				c0.35,0,0.69,0,1.03,0c0.18,0.13,0.36,0.22,0.49,0.35c0.97,0.96,1.94,1.91,2.79,2.8c0.14,0.39,0.12,0.63-0.05,0.85
				c-0.17,0.22-0.4,0.31-0.66,0.33c-0.22,0.02-0.44,0.02-0.66,0.02c-5.42,0-10.84,0-16.26,0c-0.44,0-0.89-0.04-1.32-0.13
				c-1.12-0.23-1.86-0.94-2.18-2.02c-0.14-0.48-0.21-1-0.22-1.5c-0.02-2.82-0.02-5.64,0-8.46c0-0.47,0.08-0.95,0.2-1.4
				c0.29-1.06,0.98-1.76,2.05-2.04c0.39-0.1,0.81-0.18,1.22-0.18c4.72-0.01,9.44-0.01,14.17-0.01
				C35.81,46.3,35.96,46.33,36.23,46.35z"/>
			<path class="st13" d="M185.75,55.02c0.02-0.48,0.04-0.79,0.04-1.1c0-2,0-3.99,0-5.99c0-0.25,0-0.51,0.02-0.76
				c0.03-0.33,0.16-0.61,0.56-0.84c0.94-0.09,1.99-0.04,3.03-0.02c0.18,0,0.35,0.11,0.47,0.15c0.28,0.3,0.33,0.61,0.35,0.93
				c0.01,0.16,0,0.32,0,0.48c0,4.21,0,8.43,0,12.64c0,0.44,0.06,0.9-0.33,1.31c-0.15,0.06-0.35,0.13-0.6,0.23
				c-0.33-0.15-0.68-0.29-1.01-0.47c-4.06-2.16-8.11-4.32-12.16-6.48c-0.95-0.5-1.9-1-2.82-1.49c-0.31,0.16-0.23,0.41-0.23,0.61
				c-0.01,2.09,0,4.18-0.01,6.27c0,0.41,0.05,0.83-0.17,1.2c-0.17,0.23-0.39,0.34-0.66,0.34c-0.92,0.01-1.84,0.01-2.76-0.01
				c-0.18,0-0.36-0.11-0.48-0.14c-0.27-0.26-0.33-0.54-0.35-0.83c-0.01-0.16-0.01-0.32-0.01-0.48c0-4.25,0-8.49,0-12.74
				c0-0.41-0.02-0.83,0.27-1.28c0.14-0.07,0.36-0.18,0.61-0.31c1.83,0.91,3.58,1.92,5.37,2.88c1.79,0.96,3.57,1.93,5.35,2.89
				C182.04,53,183.81,53.97,185.75,55.02z"/>
		</g>
		<g>
			<path class="st13" d="M337.21,56.38c-1.07-0.81-1.9-1.82-2.84-2.71c-0.2-0.19-0.36-0.43-0.5-0.6c0.07-0.63,0.07-0.63,0.41-0.98
				c0.75-0.12,11.08-0.13,11.95-0.01c0.32,0.15,0.45,0.42,0.47,0.76c0.01,0.13,0.01,0.25,0.01,0.38c0,2.6,0,5.2,0,7.79
				c0,0.16-0.02,0.31-0.03,0.43c-0.16,0.41-0.45,0.58-0.82,0.6c-0.22,0.01-0.44,0.01-0.66,0.01c-5.39,0-10.77,0-16.16-0.01
				c-0.47,0-0.95-0.03-1.41-0.13c-1.2-0.25-1.95-1-2.24-2.19c-0.1-0.43-0.17-0.87-0.17-1.31c-0.01-2.82-0.02-5.64,0-8.46
				c0-0.47,0.08-0.95,0.19-1.4c0.27-1.07,0.97-1.75,2.03-2.06c0.52-0.16,1.06-0.19,1.6-0.19c4.5,0,9,0,13.49,0
				c0.28,0,0.57,0.02,0.86,0.04c0.2,0.17,0.4,0.33,0.58,0.51c0.85,0.85,1.69,1.71,2.53,2.57c0.08,0.09,0.12,0.22,0.21,0.38
				c-0.07,0.17-0.12,0.41-0.25,0.55c-0.14,0.15-0.37,0.26-0.57,0.29c-0.31,0.05-0.63,0.04-0.95,0.04c-4.72,0-9.44,0-14.16,0
				c-0.34,0-0.69,0-1.02,0c-0.07,0.14-0.14,0.22-0.14,0.3c-0.01,2.18-0.01,4.37-0.01,6.53c0.25,0.28,0.55,0.19,0.82,0.19
				c3.04,0.01,6.08,0,9.12,0c0.67,0,1.33,0,2,0c0.22,0,0.43-0.02,0.68-0.04c0.16-0.39,0.1-0.76,0.06-1.18
				c-0.18-0.03-0.35-0.1-0.53-0.1c-1.2-0.01-2.41-0.01-3.61-0.01C337.84,56.38,337.52,56.38,337.21,56.38z"/>
			<path class="st13" d="M282.17,61.7c-0.03-0.22-0.09-0.5-0.1-0.77c-0.01-2.6,0-5.19,0-7.79c0-0.13,0-0.25,0.02-0.38
				c0.06-0.43,0.31-0.72,0.74-0.73c0.95-0.03,1.9-0.02,2.85-0.01c0.27,0,0.48,0.13,0.7,0.48c0.01,0.19,0.04,0.51,0.04,0.82
				c0.01,1.14,0,2.28,0,3.42c0,0.28,0.02,0.56,0.04,0.89c0.18,0.03,0.33,0.08,0.48,0.08c3.9,0,7.79,0,11.69,0
				c0.12,0,0.25-0.02,0.42-0.04c0.04-0.14,0.11-0.29,0.11-0.43c0.01-2.03,0.01-4.05,0-6.08c0-0.12-0.04-0.24-0.06-0.38
				c-0.36-0.14-0.71-0.08-1.05-0.08c-4.75,0-9.5,0-14.25,0c-0.25,0-0.51,0-0.76,0c-0.26,0-0.5-0.06-0.72-0.26
				c-0.17-0.18-0.24-0.42-0.24-0.68c-0.01-0.82,0-1.65,0-2.47c0-0.37,0.11-0.69,0.56-0.93c0.18-0.01,0.46-0.04,0.74-0.04
				c5.48,0,10.96-0.01,16.44,0.01c0.5,0,1.02,0.06,1.5,0.19c1.03,0.27,1.72,0.94,2.01,1.96c0.13,0.45,0.21,0.93,0.21,1.4
				c0.02,2.88,0.02,5.76,0,8.65c0,0.47-0.08,0.95-0.21,1.4c-0.3,1.06-1.01,1.74-2.09,1.99c-0.4,0.09-0.81,0.15-1.22,0.15
				c-5.57,0.01-11.15,0.01-16.72,0.01C282.95,62.05,282.59,62.08,282.17,61.7z"/>
			<path class="st13" d="M415.48,51.92c0.09-0.38,0.09-0.75,0-1.14c-0.35-0.15-0.7-0.09-1.04-0.09c-4.75,0-9.51,0-14.26,0
				c-0.29,0-0.57,0.01-0.86-0.01c-0.58-0.05-0.87-0.34-0.88-0.92c-0.01-1.27,0.49-2.95,2.5-3.33c0.37-0.07,0.75-0.12,1.13-0.12
				c4.72-0.01,9.45-0.01,14.17,0c0.5,0,1.02,0.06,1.5,0.2c0.98,0.27,1.66,0.92,1.95,1.91c0.14,0.48,0.23,0.99,0.23,1.49
				c0.02,3.65,0.01,7.29,0.01,10.94c0,0.1,0,0.19,0,0.29c-0.04,0.59-0.3,0.89-0.88,0.91c-0.85,0.03-1.71,0.01-2.57,0.01
				c-0.29,0-0.57-0.08-0.77-0.34c-0.21-0.29-0.16-0.65-0.16-0.99c0-1.08,0-2.16,0-3.23c0-0.31,0-0.63,0-0.99
				c-0.23-0.04-0.4-0.11-0.58-0.11c-3.87-0.01-7.73,0-11.6,0c-0.15,0-0.3,0.03-0.5,0.05c-0.02,0.33-0.05,0.6-0.05,0.88
				c-0.01,1.17,0,2.35,0,3.52c0,0.54-0.01,0.54-0.33,1.04c-0.34,0.24-0.73,0.19-1.11,0.18c-0.88-0.04-1.77,0.13-2.67-0.13
				c-0.09-0.21-0.21-0.4-0.24-0.61c-0.04-0.25-0.02-0.51-0.02-0.76c0-2.35,0-4.69,0-7.04c0-0.25-0.01-0.51,0.02-0.76
				c0.05-0.42,0.33-0.68,0.75-0.73c0.28-0.03,0.57-0.02,0.85-0.02c4.79,0,9.57,0,14.36,0C414.76,52,415.11,52.05,415.48,51.92z"/>
			<path class="st13" d="M433.02,57.65c0.92,0.12,1.83,0.04,2.74,0.06c0.92,0.01,1.84,0,2.76,0c0.89,0,1.77,0,2.66,0
				c0.92,0,1.84,0,2.76,0c0.92,0,1.83,0,2.66,0c0.68,0.47,2.63,2.38,3.33,3.24c0.1,0.25,0.1,0.5-0.05,0.72
				c-0.18,0.25-0.44,0.35-0.74,0.37c-0.22,0.01-0.44,0.01-0.66,0.01c-6.15,0-12.29,0-18.44,0c-0.41,0-0.83,0.08-1.2-0.2
				c-0.29-0.29-0.31-0.67-0.31-1.05c0-0.79,0-1.58,0-2.38c0-3.48,0-6.97,0-10.45c0-0.25-0.01-0.51,0.01-0.76
				c0.04-0.36,0.18-0.67,0.67-0.89c0.89-0.04,1.9-0.02,2.91-0.01c0.26,0,0.5,0.1,0.68,0.35c0.18,0.32,0.12,0.71,0.12,1.09
				c0,2.98,0,5.96,0,8.93C432.92,56.99,432.88,57.31,433.02,57.65z"/>
			<path class="st13" d="M386.53,46.39c1.08,0.96,2.13,2.05,3.1,3.08c0.12,0.36,0.12,0.61-0.04,0.83c-0.18,0.25-0.44,0.35-0.74,0.37
				c-0.25,0.02-0.51,0.01-0.76,0.01c-1.93,0-3.86,0-5.8,0c-0.31,0-0.62,0.03-0.93,0.04c-0.19,0.38-0.13,0.73-0.13,1.07
				c-0.01,2.91,0,5.83,0,8.74c0,0.41,0.05,0.83-0.19,1.18c-0.18,0.23-0.41,0.33-0.68,0.33c-0.89,0.01-1.77,0.01-2.66-0.01
				c-0.21,0-0.41-0.12-0.56-0.16c-0.38-0.43-0.33-0.89-0.33-1.33c0-2.44,0-4.88,0-7.32c0-0.63,0-1.27,0-1.9
				c0-0.18-0.04-0.36-0.07-0.59c-0.28-0.02-0.53-0.06-0.77-0.06c-1.17-0.01-2.34-0.02-3.52,0.01c-0.62,0.02-1.09-0.19-1.51-0.63
				c-0.67-0.71-1.38-1.39-2.07-2.09c-0.15-0.16-0.29-0.33-0.41-0.47c-0.15-0.48-0.09-0.85,0.32-1.11
				C369.53,46.27,385.56,46.26,386.53,46.39z"/>
			<path class="st13" d="M312.32,61.83c-0.06-0.35-0.15-0.63-0.15-0.91c-0.01-4.47-0.01-8.94-0.01-13.4c0-0.46,0.07-0.89,0.63-1.19
				c0.94-0.05,1.99-0.05,3.03,0c0.2,0.01,0.4,0.15,0.53,0.21c0.24,0.39,0.23,0.74,0.23,1.09c0,4.37,0,8.75,0,13.12
				c0,0.35,0.01,0.7-0.2,1c-0.18,0.22-0.41,0.3-0.68,0.3c-0.89,0-1.77,0.01-2.66-0.01C312.82,62.03,312.62,61.92,312.32,61.83z"/>
			<path class="st13" d="M359.45,61.9c-0.91,0.33-1.9,0.09-2.87,0.15c-0.35,0.02-0.7,0.03-1.01-0.27c-0.26-0.32-0.24-0.74-0.24-1.15
				c0-1.55,0-3.11,0-4.66c0-2.66,0-5.32,0-7.99c0-0.25-0.01-0.51,0.02-0.76c0.03-0.36,0.17-0.68,0.65-0.91
				c0.94-0.02,2.01-0.05,3.09,0.03c0.15,0.01,0.28,0.12,0.48,0.21c0.06,0.23,0.14,0.46,0.17,0.71c0.03,0.22,0.01,0.44,0.01,0.66
				c0,4.18,0,8.37,0,12.55C359.75,60.91,359.81,61.36,359.45,61.9z"/>
		</g>
		<g>
			<g>
				
					<linearGradient id="SVGID_00000132776596696079278880000005947583774722820784_" gradientUnits="userSpaceOnUse" x1="220.4224" y1="24.1033" x2="220.4224" y2="84.1583">
					<stop  offset="0" style="stop-color:#FBE343"/>
					<stop  offset="0.5084" style="stop-color:#D73F22"/>
					<stop  offset="1" style="stop-color:#411F1F"/>
				</linearGradient>
				<path style="fill:url(#SVGID_00000132776596696079278880000005947583774722820784_);" d="M233.21,24.1
					c0.04,0.06,0.08,0.11,0.08,0.16c0.01,0.1,0.01,0.2,0.01,0.3c0.01,3.9,0.02,7.79,0.03,11.69c0,0.13-0.01,0.25-0.01,0.36
					c-0.06,0.05-0.08,0.09-0.12,0.11c-0.5,0.28-1,0.56-1.49,0.85c-0.89,0.52-1.78,1.04-2.68,1.56c-0.48,0.28-0.97,0.55-1.45,0.83
					c-0.65,0.37-1.29,0.75-1.94,1.12c-0.85,0.48-1.7,0.96-2.54,1.45c-0.87,0.5-1.73,1.02-2.6,1.52c-0.55,0.32-1.1,0.62-1.65,0.94
					c-0.17,0.1-0.34,0.22-0.52,0.34c0,0.1-0.01,0.2-0.01,0.3c0.01,0.16,0.04,0.31,0.04,0.47c0,5.23,0,10.47,0,15.7
					c0,0.24,0.01,0.49-0.05,0.73c-0.02,0.08,0.01,0.17,0.01,0.27c0.11,0.09,0.21,0.19,0.33,0.26c0.51,0.3,1.02,0.58,1.53,0.87
					c0.48,0.28,0.96,0.57,1.45,0.85c0.46,0.27,0.92,0.53,1.38,0.79c0.97,0.56,1.94,1.12,2.91,1.68c0.93,0.54,1.87,1.06,2.8,1.6
					c0.48,0.28,0.96,0.57,1.45,0.85c0.52,0.3,1.04,0.6,1.57,0.9c0.44,0.25,0.88,0.49,1.31,0.74c0.15,0.09,0.31,0.16,0.42,0.37
					c0.03,4.07,0,8.18,0.01,12.29c0,0.05-0.03,0.11-0.05,0.19c-0.09-0.03-0.18-0.04-0.25-0.08c-1.09-0.63-2.18-1.27-3.28-1.9
					c-1.17-0.67-2.34-1.34-3.51-2.02c-1.55-0.9-3.11-1.8-4.66-2.69c-0.93-0.54-1.87-1.07-2.8-1.61c-1.27-0.73-2.53-1.47-3.8-2.21
					c-0.86-0.5-1.72-0.98-2.58-1.48c-1.2-0.7-2.4-1.4-3.61-2.1c-0.42-0.25-0.85-0.48-1.27-0.73c-0.11-0.06-0.21-0.14-0.29-0.19
					c-0.03-0.06-0.04-0.07-0.04-0.08c-0.01-0.01-0.01-0.03-0.01-0.04c0-9.98-0.01-19.95-0.01-29.93c0-0.03,0.02-0.05,0.04-0.12
					c0.25-0.14,0.52-0.3,0.8-0.44c0.58-0.29,1.11-0.65,1.67-0.97c0.15-0.09,0.3-0.17,0.45-0.25c0.86-0.49,1.72-0.98,2.57-1.47
					c0.73-0.42,1.47-0.83,2.19-1.27c0.77-0.47,1.57-0.88,2.34-1.36c0.59-0.37,1.22-0.7,1.83-1.05c0.46-0.26,0.92-0.53,1.38-0.79
					c0.52-0.3,1.05-0.59,1.57-0.9c0.55-0.32,1.09-0.64,1.63-0.96c0.5-0.29,1-0.57,1.49-0.85c0.56-0.32,1.11-0.66,1.67-0.98
					c0.04-0.02,0.07-0.05,0.11-0.07c0.95-0.48,1.83-1.06,2.76-1.57c1.04-0.57,2.06-1.19,3.09-1.78
					C233.03,24.22,233.11,24.17,233.21,24.1z"/>
				
					<linearGradient id="SVGID_00000062874879313954439340000017904495490027389572_" gradientUnits="userSpaceOnUse" x1="252.5304" y1="23.8417" x2="252.5304" y2="83.9305">
					<stop  offset="0" style="stop-color:#FBE343"/>
					<stop  offset="0.5084" style="stop-color:#D73F22"/>
					<stop  offset="1" style="stop-color:#411F1F"/>
				</linearGradient>
				<path style="fill:url(#SVGID_00000062874879313954439340000017904495490027389572_);" d="M265.59,68.99
					c-0.25,0.14-0.48,0.26-0.71,0.39c-0.62,0.36-1.24,0.72-1.86,1.08c-1.35,0.79-2.7,1.57-4.06,2.35c-0.9,0.52-1.79,1.02-2.69,1.54
					c-0.72,0.42-1.44,0.84-2.16,1.25c-1.49,0.86-2.99,1.72-4.48,2.58c-1.33,0.77-2.66,1.54-3.99,2.31
					c-0.96,0.55-1.91,1.11-2.87,1.66c-0.87,0.5-1.74,1-2.61,1.5c-0.15,0.08-0.29,0.17-0.45,0.27c-0.03-0.06-0.07-0.11-0.08-0.16
					c-0.01-0.08-0.01-0.17-0.01-0.26c-0.01-3.97-0.02-7.94-0.03-11.9c0-0.07,0-0.14,0-0.23c0.09-0.06,0.16-0.13,0.24-0.17
					c0.88-0.51,1.77-1.01,2.65-1.51c0.76-0.43,1.52-0.87,2.28-1.3c1.03-0.59,2.06-1.19,3.09-1.79c1.05-0.61,2.11-1.22,3.16-1.83
					c0.73-0.42,1.47-0.84,2.2-1.26c0.38-0.22,0.77-0.44,1.15-0.67c0.08-0.05,0.15-0.13,0.23-0.19c0-5.82,0-11.62,0-17.43
					c-0.11-0.15-0.26-0.24-0.41-0.32c-0.51-0.29-1.03-0.57-1.54-0.87c-0.77-0.45-1.53-0.91-2.3-1.35c-0.62-0.36-1.25-0.71-1.87-1.06
					c-0.79-0.46-1.58-0.93-2.38-1.39c-0.5-0.29-0.99-0.57-1.49-0.85c-0.56-0.32-1.12-0.64-1.67-0.98c-0.58-0.36-1.2-0.68-1.8-1.01
					c-0.44-0.25-0.87-0.49-1.31-0.74c-0.13-0.08-0.25-0.19-0.37-0.28c-0.01-0.13-0.02-0.25-0.02-0.36c0-2.13,0-4.25,0-6.38
					c0-1.74,0-3.48,0-5.22c0-0.11,0-0.23,0.01-0.34c0.01-0.06,0.06-0.12,0.1-0.2c0.31,0.17,0.6,0.31,0.88,0.48
					c0.57,0.34,1.13,0.67,1.7,1c0.65,0.36,1.29,0.75,1.94,1.12c0.83,0.48,1.67,0.95,2.5,1.43c0.88,0.51,1.75,1.03,2.63,1.54
					c0.92,0.53,1.84,1.05,2.76,1.57c0.5,0.29,0.98,0.59,1.48,0.88c0.48,0.28,0.97,0.55,1.46,0.83c0.63,0.36,1.27,0.73,1.9,1.09
					c0.87,0.5,1.74,0.99,2.61,1.5c0.74,0.43,1.49,0.86,2.24,1.29c0.86,0.49,1.71,0.99,2.56,1.49c0.35,0.2,0.7,0.4,1.04,0.6
					c0.11,0.06,0.2,0.15,0.32,0.24C265.61,48.92,265.6,58.94,265.59,68.99z"/>
			</g>
		</g>
	</g>
</g>
<g id="GRD_HZL_WHT">
</g>
<g id="GRD_VRT_WHT">
</g>
<g id="FC_WHT">
</g>
<g id="GRD_SIG_HZL">
</g>
<g id="GRD_HZL_BLK">
</g>
<g id="GRD_VRT_BLK">
</g>
<g id="FC_BLK">
</g>
<g id="INSIGNIA">
</g>
</svg>
