<?xml version="1.0" encoding="utf-8"?>
<!-- Generator: Adobe Illustrator 28.0.0, SVG Export Plug-In . SVG Version: 6.00 Build 0)  -->
<svg version="1.1" xmlns="http://www.w3.org/2000/svg" xmlns:xlink="http://www.w3.org/1999/xlink" x="0px" y="0px"
	 viewBox="0 0 360 360" style="enable-background:new 0 0 360 360;" xml:space="preserve">
<style type="text/css">
	.st0{display:none;}
	.st1{display:inline;fill:url(#SVGID_1_);}
	.st2{display:inline;}
	.st3{display:inline;fill:#2B3D49;}
	.st4{display:inline;fill:url(#SVGID_00000154390268144732107090000015202126074677215411_);}
	.st5{display:inline;fill:url(#SVGID_00000014614778203156953700000010840741607778422963_);}
	.st6{display:inline;fill:url(#SVGID_00000036960669128718751220000004417266749757357715_);}
	.st7{display:inline;fill:url(#SVGID_00000047022018734122586290000009633652911318139566_);}
	.st8{display:inline;fill:url(#SVGID_00000158729394305711090920000014319382931393232046_);}
	.st9{display:inline;fill:url(#SVGID_00000069361220001830003390000015063280513615940013_);}
	.st10{display:inline;fill:url(#SVGID_00000016047540013336295830000017516999867966023810_);}
	.st11{display:inline;fill:#C3C5C8;}
	.st12{display:inline;fill:url(#SVGID_00000093160511378935067790000005469714192615057296_);}
	.st13{fill:#FFFFFF;}
	.st14{fill:#411F1F;}
	.st15{fill:#C3C5C8;}
	.st16{fill:#2B3D49;}
	.st17{fill:#FFFFFF;stroke:url(#SVGID_00000154413852597198297140000014492972625267471003_);stroke-miterlimit:10;}
	.st18{fill:#F19933;}
	.st19{fill:#D73F22;}
	.st20{fill:#FBE343;}
	.st21{fill:#768591;}
	.st22{fill:url(#SVGID_00000024689663754198359850000011732736950748920227_);}
	.st23{fill:url(#SVGID_00000093174247752678378910000016397359036501775238_);}
	.st24{fill:url(#SVGID_00000173126149259278687780000014942584861549495699_);}
	.st25{fill:url(#SVGID_00000039851463329945884730000012961586799155249597_);}
	.st26{fill:url(#SVGID_00000081621727905084522460000016974603374717694115_);}
	.st27{fill:url(#SVGID_00000157990407159009558330000000064799145201359265_);}
	.st28{fill:url(#SVGID_00000157283405414415192910000018365695609715492481_);}
	.st29{fill:url(#SVGID_00000039835851791208298400000001500240771639597759_);}
	.st30{fill:url(#SVGID_00000083064745378173639600000005786962029552693914_);}
	.st31{fill:url(#SVGID_00000158715853743842226040000006198562528782488215_);}
	.st32{fill:url(#SVGID_00000031887424927452758560000007154445853483297176_);}
	.st33{fill:url(#SVGID_00000036970976790240726350000013384334447556858298_);}
	.st34{fill:url(#SVGID_00000016768037766877196040000014068136572988030640_);}
	.st35{fill:url(#SVGID_00000152231405265819383730000011835328692151714740_);}
	.st36{fill:url(#SVGID_00000049198993831383925680000007626363113445515450_);}
	.st37{fill:none;}
	.st38{fill:url(#SVGID_00000075869907726892993800000013042462163028775050_);}
	.st39{fill:url(#SVGID_00000078041215280658940600000013362415523115061677_);}
	.st40{fill:url(#SVGID_00000031192322046274896030000003876832844245140370_);}
	.st41{fill:url(#SVGID_00000035502984945684522790000005646901086402519981_);}
	.st42{fill:url(#SVGID_00000043445782674673260010000018088190616000407468_);}
	.st43{fill:url(#SVGID_00000117673958492526237800000002470174978081936043_);}
	.st44{fill:url(#SVGID_00000050661052165756780980000014128644670320050567_);}
	.st45{fill:url(#SVGID_00000109026605115575473190000001923105594580487087_);}
	.st46{fill:url(#SVGID_00000166665377686729016060000014945898991989211520_);}
	.st47{fill:url(#SVGID_00000000214001169311428700000008660893410748761216_);}
	.st48{fill:url(#SVGID_00000017498675133082174070000016696996239486999702_);}
	.st49{fill:url(#SVGID_00000129176174752676875300000002420285719798459301_);}
	.st50{fill:url(#SVGID_00000129912897669160876440000012390830867739561388_);}
	.st51{fill:url(#SVGID_00000069393695538553010080000018036165469780660129_);}
	.st52{fill:url(#SVGID_00000064317199922514764460000011087417997845919679_);}
</style>
<g id="BG_COLORS__x26__INFO" class="st0">
	<linearGradient id="SVGID_1_" gradientUnits="userSpaceOnUse" x1="180" y1="359.8276" x2="180" y2="-0.1724">
		<stop  offset="0" style="stop-color:#32424C"/>
		<stop  offset="1" style="stop-color:#000000"/>
	</linearGradient>
	<rect y="-0.17" class="st1" width="360" height="360"/>
	<g id="Layer_15" class="st2">
	</g>
</g>
<g id="INFORMATION">
</g>
<g id="ELEMENTS">
</g>
<g id="GRD_SIG_WHT">
</g>
<g id="GRD_HZL_WHT">
</g>
<g id="GRD_VRT_WHT">
	<g>
		<g>
			<g>
				
					<linearGradient id="SVGID_00000166648364644230607430000009094891396725644178_" gradientUnits="userSpaceOnUse" x1="122.0327" y1="36.0101" x2="122.0327" y2="252.8851">
					<stop  offset="0" style="stop-color:#FBE343"/>
					<stop  offset="0.5084" style="stop-color:#D73F22"/>
					<stop  offset="1" style="stop-color:#411F1F"/>
				</linearGradient>
				<path style="fill:url(#SVGID_00000166648364644230607430000009094891396725644178_);" d="M168.21,36.01
					c0.13,0.23,0.28,0.39,0.31,0.56c0.05,0.36,0.04,0.72,0.04,1.09c0.04,14.07,0.08,28.14,0.12,42.21c0,0.46-0.03,0.92-0.04,1.3
					c-0.21,0.19-0.3,0.32-0.44,0.39c-1.8,1.03-3.6,2.04-5.4,3.07c-3.22,1.87-6.44,3.75-9.66,5.62c-1.75,1.01-3.5,2-5.25,3.01
					c-2.33,1.34-4.66,2.7-6.99,4.03c-3.05,1.75-6.12,3.47-9.17,5.23c-3.14,1.81-6.25,3.68-9.38,5.5c-1.97,1.14-3.97,2.24-5.94,3.38
					c-0.63,0.36-1.22,0.78-1.87,1.21c-0.01,0.37-0.04,0.72-0.02,1.07c0.03,0.57,0.15,1.13,0.15,1.7c0.01,18.9,0,37.8,0,56.69
					c0,0.88,0.05,1.76-0.18,2.63c-0.07,0.28,0.02,0.61,0.05,0.99c0.39,0.31,0.76,0.68,1.2,0.93c1.83,1.07,3.69,2.09,5.53,3.14
					c1.75,1.01,3.48,2.05,5.23,3.06c1.66,0.96,3.32,1.91,4.98,2.86c3.5,2.02,6.99,4.04,10.49,6.05c3.37,1.93,6.75,3.84,10.11,5.78
					c1.75,1.01,3.48,2.05,5.22,3.07c1.88,1.09,3.77,2.17,5.66,3.25c1.58,0.9,3.17,1.77,4.73,2.68c0.53,0.31,1.11,0.59,1.51,1.32
					c0.1,14.69,0.02,29.53,0.02,44.38c0,0.19-0.11,0.38-0.19,0.67c-0.33-0.11-0.64-0.16-0.89-0.3c-3.95-2.28-7.89-4.58-11.84-6.86
					c-4.22-2.44-8.45-4.86-12.67-7.29c-5.61-3.24-11.22-6.48-16.84-9.72c-3.37-1.94-6.75-3.86-10.11-5.81
					c-4.57-2.65-9.13-5.32-13.71-7.98c-3.09-1.79-6.21-3.55-9.3-5.35c-4.35-2.52-8.68-5.07-13.02-7.59
					c-1.52-0.89-3.06-1.74-4.58-2.62c-0.4-0.23-0.77-0.5-1.03-0.68c-0.1-0.2-0.13-0.25-0.15-0.29c-0.02-0.05-0.04-0.1-0.04-0.15
					c-0.01-36.03-0.02-72.05-0.02-108.08c0-0.1,0.06-0.2,0.13-0.42c0.91-0.5,1.88-1.07,2.89-1.58c2.08-1.05,4.02-2.34,6.04-3.5
					c0.54-0.31,1.09-0.6,1.62-0.91c3.1-1.77,6.2-3.54,9.29-5.32c2.65-1.52,5.31-3.02,7.92-4.6c2.78-1.69,5.68-3.18,8.44-4.92
					c2.14-1.35,4.4-2.53,6.6-3.79c1.66-0.95,3.32-1.9,4.98-2.85c1.89-1.08,3.78-2.15,5.66-3.23c1.97-1.14,3.93-2.31,5.9-3.45
					c1.79-1.04,3.6-2.04,5.39-3.08c2.01-1.17,4.01-2.37,6.02-3.55c0.13-0.08,0.26-0.17,0.4-0.24c3.42-1.73,6.62-3.83,9.98-5.67
					c3.76-2.07,7.44-4.29,11.16-6.44C167.54,36.43,167.84,36.24,168.21,36.01z"/>
				
					<linearGradient id="SVGID_00000109732609856456844130000003807595251468642208_" gradientUnits="userSpaceOnUse" x1="237.9833" y1="35.0652" x2="237.9833" y2="252.0624">
					<stop  offset="0" style="stop-color:#FBE343"/>
					<stop  offset="0.5084" style="stop-color:#D73F22"/>
					<stop  offset="1" style="stop-color:#411F1F"/>
				</linearGradient>
				<path style="fill:url(#SVGID_00000109732609856456844130000003807595251468642208_);" d="M285.15,198.11
					c-0.92,0.5-1.74,0.93-2.55,1.4c-2.24,1.3-4.47,2.62-6.71,3.92c-4.88,2.84-9.76,5.67-14.65,8.5c-3.23,1.87-6.48,3.7-9.72,5.56
					c-2.61,1.5-5.2,3.02-7.8,4.52c-5.39,3.11-10.78,6.2-16.17,9.31c-4.81,2.77-9.6,5.56-14.4,8.34c-3.45,2-6.91,4-10.36,5.99
					c-3.14,1.81-6.29,3.62-9.43,5.43c-0.53,0.3-1.04,0.63-1.63,0.99c-0.11-0.22-0.24-0.39-0.27-0.57c-0.05-0.3-0.04-0.62-0.04-0.93
					c-0.04-14.33-0.08-28.66-0.11-42.98c0-0.26,0-0.51,0-0.82c0.31-0.22,0.58-0.46,0.88-0.63c3.19-1.83,6.39-3.64,9.58-5.46
					c2.74-1.57,5.49-3.13,8.22-4.71c3.72-2.15,7.44-4.31,11.16-6.46c3.81-2.21,7.62-4.41,11.43-6.61c2.65-1.53,5.3-3.04,7.95-4.57
					c1.39-0.8,2.78-1.6,4.15-2.42c0.3-0.18,0.55-0.46,0.82-0.69c0-21.01,0-41.97,0-62.93c-0.41-0.54-0.94-0.86-1.48-1.17
					c-1.85-1.04-3.71-2.07-5.55-3.14c-2.77-1.61-5.52-3.27-8.29-4.89c-2.24-1.3-4.5-2.55-6.74-3.84c-2.87-1.66-5.72-3.35-8.58-5.01
					c-1.79-1.04-3.59-2.06-5.39-3.08c-2.03-1.14-4.04-2.31-6.02-3.53c-2.11-1.3-4.32-2.44-6.48-3.66c-1.58-0.89-3.16-1.77-4.72-2.68
					c-0.48-0.28-0.9-0.68-1.34-1.02c-0.03-0.49-0.08-0.9-0.08-1.31c-0.01-7.68-0.01-15.37-0.01-23.05c0-6.28-0.01-12.56-0.01-18.84
					c0-0.41-0.01-0.83,0.05-1.24c0.03-0.23,0.21-0.44,0.36-0.74c1.11,0.6,2.17,1.14,3.19,1.74c2.04,1.22,4.08,2.43,6.15,3.6
					c2.35,1.32,4.66,2.7,6.99,4.04c3.01,1.72,6.03,3.42,9.03,5.15c3.18,1.84,6.33,3.73,9.51,5.57c3.31,1.91,6.66,3.77,9.97,5.68
					c1.79,1.03,3.55,2.12,5.34,3.16c1.74,1.01,3.51,1.99,5.26,2.99c2.29,1.31,4.58,2.63,6.86,3.94c3.14,1.8,6.29,3.58,9.42,5.41
					c2.68,1.57,5.37,3.12,8.07,4.64c3.11,1.75,6.17,3.59,9.26,5.39c1.25,0.73,2.52,1.43,3.76,2.17c0.39,0.23,0.74,0.55,1.14,0.85
					C285.2,125.63,285.17,161.8,285.15,198.11z"/>
			</g>
		</g>
		<g>
			<path class="st13" d="M220.83,280.48c-0.41,0-0.78,0-1.14,0c-9.68,0-19.36,0-29.04,0c-0.31,0-0.62,0.02-0.92-0.01
				c-0.62-0.06-0.94-0.36-1.07-0.97c-0.04-0.18-0.04-0.37-0.04-0.55c0-1.42,0-2.84,0-4.25c0-0.45,0.11-0.85,0.32-1.2
				c0.34-0.25,0.69-0.36,1.07-0.36c0.18,0,0.37,0,0.55,0c10.2,0,20.41,0,30.61,0c1.05,0,2.09,0.09,3.11,0.37
				c1.88,0.52,3.09,1.7,3.61,3.59c0.2,0.72,0.34,1.44,0.33,2.18c-0.01,1.08,0.02,2.16-0.02,3.24c-0.02,0.52-0.1,1.04-0.21,1.55
				c-0.28,1.32-0.97,2.39-2.07,3.18c-0.12,0.09-0.23,0.19-0.38,0.32c0.11,0.11,0.18,0.21,0.27,0.27c1.55,1.06,2.25,2.6,2.36,4.4
				c0.09,1.41,0.04,2.83,0.01,4.25c-0.01,0.74-0.22,1.46-0.48,2.15c-0.56,1.48-1.63,2.44-3.12,2.94c-0.79,0.27-1.62,0.39-2.45,0.42
				c-0.25,0.01-0.49,0.01-0.74,0.01c-10.3,0-20.59,0-30.89,0c-0.52,0-1.06,0.06-1.53-0.3c-0.32-0.35-0.37-0.8-0.37-1.27
				c0.01-1.17,0-2.34,0-3.51c0-3.73,0-7.46,0-11.19c0-0.5-0.01-0.99,0.31-1.44c0.29-0.28,0.67-0.37,1.08-0.38
				c0.25-0.01,0.49,0,0.74,0c9.68,0,19.36,0,29.04,0c0.36,0,0.73,0.06,1.07-0.07C220.98,283.04,220.98,281.35,220.83,280.48z
				 M196.03,291.33c-0.12,1.11-0.1,2.6,0.05,3.28c0.31,0.11,0.65,0.06,0.98,0.06c7.58,0,15.16,0,22.75,0c0.18,0,0.37,0.01,0.55,0
				c0.18-0.01,0.37,0.03,0.51-0.14c0.13-0.96,0.11-2.55-0.04-3.23c-0.14-0.02-0.28-0.04-0.43-0.05
				C217.03,291.17,196.97,291.22,196.03,291.33z"/>
			<path class="st13" d="M162.13,291.3c0.2,0.24,0.34,0.43,0.51,0.6c1.52,1.53,3.05,3.05,4.58,4.58c1.18,1.18,2.35,2.36,3.53,3.53
				c0.26,0.26,0.53,0.52,0.58,0.92c-0.22,0.79-0.44,1-1.16,1.07c-0.12,0.01-0.25,0.01-0.37,0.01c-1.82,0-3.64,0-5.46,0
				c-0.15,0-0.31,0.01-0.46-0.01c-0.41-0.05-0.78-0.18-1.07-0.49c-0.19-0.2-0.39-0.39-0.59-0.59c-2.96-2.97-5.93-5.93-8.89-8.9
				c-0.24-0.24-0.44-0.51-0.62-0.71c-1.01-0.11-1.9-0.05-2.79-0.06c-0.89-0.01-1.79,0-2.68,0c-0.89,0-1.79,0-2.68,0
				c-0.89,0-1.79,0-2.68,0c-0.88,0-1.77-0.02-2.7,0.02c-0.02,0.38-0.04,0.68-0.04,0.98c0,2.68,0,5.36,0,8.05
				c0,0.5-0.01,0.99-0.35,1.39c-0.31,0.25-0.67,0.31-1.05,0.31c-1.51,0-3.02,0-4.53,0c-0.38,0-0.74-0.06-1.06-0.3
				c-0.27-0.31-0.37-0.69-0.36-1.1c0-0.12,0-0.25,0-0.37c0-4.84,0-9.68,0-14.52c0-0.5-0.01-0.99,0.31-1.44
				c0.29-0.27,0.67-0.36,1.08-0.37c0.25-0.01,0.49,0,0.74,0c9.65,0,19.3,0,28.95,0c0.37,0,0.73,0,1.12,0
				c0.05-0.16,0.12-0.27,0.12-0.38c0.01-0.86,0.01-1.73,0-2.59c0-0.12-0.04-0.23-0.07-0.37c-0.14-0.03-0.25-0.08-0.37-0.08
				c-0.31-0.01-0.62-0.01-0.92-0.01c-9.65,0-19.3,0-28.95,0c-0.31,0-0.62,0.02-0.92-0.02c-0.61-0.06-0.94-0.37-1.06-0.98
				c-0.04-0.18-0.04-0.37-0.04-0.55c0-1.39,0-2.77,0-4.16c0-0.44,0.06-0.86,0.31-1.25c0.3-0.28,0.68-0.38,1.09-0.38
				c0.15,0,0.31,0,0.46,0c10.27,0,20.53,0,30.8,0c1.02,0,2.03,0.1,3.02,0.37c1.88,0.52,3.09,1.72,3.6,3.61
				c0.19,0.69,0.33,1.38,0.32,2.09c-0.01,2-0.01,4.01,0,6.01c0,0.78-0.15,1.53-0.37,2.27c-0.53,1.76-1.7,2.9-3.47,3.4
				c-0.86,0.25-1.74,0.39-2.65,0.36c-0.74-0.02-1.48-0.01-2.22,0C162.53,291.26,162.38,291.28,162.13,291.3z"/>
			<path class="st13" d="M265.3,302.02c-4.35,0-8.7,0-13.05,0c-0.84,0-1.66-0.08-2.48-0.27c-2.24-0.55-3.56-1.98-3.99-4.23
				c-0.12-0.63-0.2-1.28-0.2-1.93c-0.02-5.34-0.01-10.67-0.01-16.01c0-0.93,0.13-1.85,0.42-2.73c0.53-1.64,1.63-2.73,3.27-3.27
				c1.01-0.33,2.05-0.44,3.1-0.44c1.85,0,3.7,0,5.55,0c6.75,0,13.51,0,20.26,0c1.05,0,2.09,0.1,3.11,0.39
				c1.84,0.53,3.02,1.71,3.55,3.56c0.27,0.96,0.35,1.94,0.35,2.93c0,3.12,0,6.23,0,9.35c0,1.97,0,3.95,0,5.92
				c0,0.96-0.08,1.91-0.35,2.84c-0.52,1.81-1.68,2.98-3.47,3.53c-0.92,0.28-1.87,0.38-2.83,0.38
				C274.12,302.01,269.71,302.02,265.3,302.02z M277.79,294.61c0.04-0.11,0.09-0.2,0.09-0.29c0-4.5,0-9,0-13.5
				c0-0.09-0.06-0.17-0.09-0.28c-0.36-0.11-0.73-0.06-1.1-0.06c-7.52,0-15.05,0-22.57,0c-0.22,0-0.43-0.01-0.65,0
				c-0.18,0.01-0.35,0.05-0.56,0.08c-0.01,0.35-0.03,0.65-0.03,0.95c0,2.07,0,4.13,0,6.2c0,2.04,0,4.07,0,6.11
				c0,0.27-0.08,0.56,0.14,0.78c0.92,0.12,19.82,0.18,24.23,0.07C277.44,294.67,277.62,294.63,277.79,294.61z"/>
			<path class="st13" d="M114.2,301.75c-0.38,0.21-0.77,0.27-1.18,0.27c-1.42-0.01-2.84-0.01-4.26,0c-0.38,0-0.74-0.05-1.04-0.25
				c-0.3-0.24-0.41-0.55-0.41-0.91c0-0.25-0.01-0.49-0.01-0.74c0-2.62,0-5.24,0-7.86c0-0.3-0.02-0.6-0.04-0.92
				c-0.17-0.03-0.29-0.07-0.41-0.07c-1.84-0.08-23.69-0.02-24.42,0.07c-0.2,0.23-0.12,0.52-0.12,0.78c-0.01,2.68,0,5.37-0.01,8.05
				c0,0.34-0.04,0.67-0.08,1.01c-0.06,0.45-0.36,0.71-0.79,0.79c-0.21,0.04-0.43,0.06-0.64,0.06c-1.45,0-2.9,0-4.35,0
				c-0.41,0-0.8-0.05-1.14-0.33c-0.26-0.31-0.34-0.7-0.33-1.11c0-0.52,0-1.05,0-1.57c0-4.44,0-8.88,0-13.32
				c0-0.5-0.01-0.99,0.32-1.42c0.29-0.25,0.64-0.34,1.02-0.35c0.28-0.01,0.55,0,0.83,0c9.65,0,19.3,0,28.96,0
				c0.36,0,0.74,0.06,1.09-0.07c0.15-0.64,0.17-2.19,0.05-3.21c-0.13-0.18-0.32-0.14-0.5-0.15c-0.28-0.01-0.55,0-0.83,0
				c-9.62,0-19.24,0-28.86,0c-0.28,0-0.56,0-0.83-0.01c-0.35-0.01-0.67-0.1-0.94-0.39c-0.25-0.34-0.33-0.76-0.26-1.2
				c0.1-0.61,0.18-1.22,0.35-1.81c0.51-1.85,1.72-3.02,3.55-3.55c0.98-0.29,1.99-0.38,3.02-0.38c3.85,0,7.71,0,11.56,0
				c4.72,0,9.44,0,14.15,0c1.02,0,2.03,0.1,3.02,0.38c1.88,0.52,3.08,1.72,3.6,3.61c0.2,0.72,0.33,1.44,0.33,2.19
				c0,0.31,0.01,0.62,0.01,0.92c0,6.66,0,13.32,0,19.98c0,0.22,0,0.43-0.01,0.65C114.56,301.18,114.48,301.47,114.2,301.75z"/>
			<path class="st13" d="M57.26,280.21c-0.32,0.21-0.62,0.27-0.93,0.27c-0.28,0-0.55,0-0.83,0c-9.65,0-19.3,0-28.95,0
				c-0.36,0-0.73-0.04-1.07,0.06c-0.14,0.7-0.19,6.77-0.11,13.33c0,0.24,0.04,0.48,0.06,0.72c0.4,0.13,0.77,0.08,1.14,0.08
				c6.44,0,12.89,0,19.33,0c1.54,0,3.08,0,4.62,0c0.43,0,0.86,0.01,1.33,0.23c0.15,0.14,0.35,0.33,0.55,0.52
				c1.51,1.5,3.01,3.01,4.51,4.51c0.15,0.15,0.31,0.3,0.44,0.47c0.37,0.49,0.23,1.14-0.32,1.41c-0.22,0.11-0.47,0.15-0.71,0.18
				c-0.21,0.03-0.43,0.01-0.65,0.01c-10.3,0-20.59,0-30.89,0c-1.02,0-2.03-0.1-3.01-0.41c-1.76-0.55-2.88-1.73-3.39-3.49
				c-0.25-0.89-0.39-1.81-0.39-2.74c0-5.21,0-10.42,0-15.63c0-0.9,0.13-1.79,0.37-2.65c0.51-1.84,1.7-3.04,3.53-3.58
				c0.95-0.28,1.93-0.39,2.92-0.39c1.94,0,3.88,0,5.83,0c6.51,0,13.01,0,19.52,0c0.25,0,0.49,0,0.74,0c0.49,0,0.9,0.16,1.25,0.51
				c0.11,0.11,0.22,0.22,0.33,0.33c1.46,1.46,2.92,2.92,4.38,4.38c0.09,0.09,0.18,0.17,0.26,0.26
				C57.64,279.18,57.66,279.41,57.26,280.21z"/>
			<path class="st13" d="M334.63,289.94c0.16-0.36,0.09-0.7,0.09-1.03c0.01-4.66,0-9.31,0.01-13.97c0-0.4,0.04-0.79,0.05-1.1
				c0.37-0.59,0.87-0.7,1.41-0.7c1.23,0,2.47,0,3.7,0c0.25,0,0.5-0.02,0.74,0.01c0.24,0.03,0.49,0.08,0.72,0.15
				c0.28,0.09,0.48,0.29,0.54,0.58c0.06,0.3,0.1,0.61,0.1,0.91c0.01,8.51,0.01,17.02,0,25.54c0,0.31-0.02,0.62-0.09,0.91
				c-0.13,0.5-0.54,0.77-1.05,0.66c-0.32-0.07-0.64-0.22-0.93-0.38c-2.64-1.4-5.28-2.81-7.92-4.21
				c-7.18-3.83-14.37-7.65-21.55-11.47c-0.2-0.11-0.39-0.32-0.72-0.21c0,0.13,0,0.28,0,0.43c0,4.69,0,9.38,0,14.06
				c0,0.22,0.01,0.43-0.01,0.65c-0.03,0.37-0.1,0.74-0.43,1.01c-0.27,0.18-0.6,0.24-0.95,0.24c-1.54,0-3.08,0-4.63,0
				c-0.35,0-0.67-0.08-0.96-0.29c-0.26-0.28-0.35-0.64-0.36-1.02c0-0.12,0-0.25,0-0.37c0-8.45,0-16.9,0-25.35
				c0-0.28,0-0.56,0.05-0.83c0.17-0.82,0.75-1.12,1.52-0.78c0.25,0.11,0.49,0.26,0.74,0.39c9.7,5.27,19.4,10.54,29.09,15.8
				C334.05,289.72,334.3,289.91,334.63,289.94z"/>
			<path class="st13" d="M141.57,321.32c0-0.57,0-1.05,0-1.58c-0.2-0.03-0.38-0.09-0.55-0.09c-1.11-0.01-2.22,0-3.33,0
				c-0.31,0-0.61,0-0.86,0c-0.76-0.53-2.61-2.41-2.98-3.01c0.08-0.14,0.17-0.29,0.23-0.4c0.37-0.2,0.72-0.13,1.05-0.13
				c3.2,0.01,6.41,0.03,9.61,0.05c0.08,0,0.16,0.09,0.27,0.16c0.04,0.15,0.12,0.33,0.12,0.5c0.01,2.5,0,4.99,0,7.49
				c0,0.09-0.03,0.18-0.05,0.26c-0.15,0.24-0.38,0.33-0.64,0.34c-0.21,0.01-0.43,0.01-0.65,0.01c-4.78,0-9.55,0.01-14.33-0.01
				c-0.52,0-1.05-0.06-1.55-0.17c-0.96-0.21-1.58-0.83-1.81-1.78c-0.12-0.47-0.19-0.97-0.19-1.46c-0.02-2.4,0-4.81-0.01-7.21
				c0-0.53,0.08-1.05,0.23-1.55c0.27-0.9,0.87-1.48,1.79-1.69c0.42-0.09,0.85-0.15,1.28-0.15c4.13-0.01,8.26-0.01,12.39-0.01
				c0.21,0,0.43,0.03,0.7,0.05c0.31,0.3,0.64,0.61,0.97,0.94c0.33,0.32,0.66,0.64,0.98,0.98c0.31,0.33,0.72,0.59,0.88,1.09
				c-0.06,0.11-0.14,0.24-0.24,0.42c-0.36,0.01-0.72,0.04-1.09,0.04c-4.41,0-8.82,0-13.22,0.01c-0.33,0-0.67-0.07-1.04,0.1
				c-0.02,0.13-0.06,0.28-0.07,0.43c-0.06,1.46-0.02,5.63,0.08,6.33c0.12,0.03,0.26,0.09,0.41,0.09c3.73,0,7.46,0,11.19,0
				C141.24,321.38,141.36,321.35,141.57,321.32z"/>
			<path class="st13" d="M49.71,314.3c-0.4-0.71-0.17-1.47-0.22-2.2c-0.03-0.37-0.02-0.74,0.24-1.04c0.28-0.22,0.6-0.16,0.9-0.16
				c1.51,0,3.02,0,4.53,0c3.33,0,6.66,0,9.99,0.01c0.49,0,0.99,0.03,1.47,0.12c1.07,0.21,1.75,0.87,1.99,1.94
				c0.07,0.33,0.11,0.67,0.11,1.01c0.01,2.62,0.01,5.24,0,7.86c0,0.4-0.06,0.8-0.16,1.18c-0.23,0.92-0.85,1.5-1.76,1.72
				c-0.5,0.12-1.04,0.17-1.55,0.17c-4.19,0.01-8.39,0.01-12.58,0.01c-0.71,0-1.42,0-2.13,0c-0.18,0-0.37-0.02-0.55-0.05
				c-0.09-0.01-0.17-0.07-0.24-0.11c-0.23-0.22-0.26-0.49-0.26-0.78c0-2.31,0-4.63,0.01-6.94c0-0.24,0.08-0.47,0.12-0.71
				c0.21-0.09,0.38-0.21,0.55-0.21c0.89,0,1.78-0.1,2.58,0.05c0.34,0.34,0.3,0.69,0.31,1.03c0,1.05,0,2.1,0,3.15
				c0,0.3-0.04,0.62,0.09,0.95c0.14,0.03,0.28,0.08,0.43,0.08c3.7,0,7.4,0,11.1,0c0.12,0,0.24-0.02,0.42-0.04
				c0.03-0.15,0.09-0.29,0.09-0.43c0.01-2,0-4.01,0-6.01c0-0.12-0.04-0.24-0.06-0.36c-0.34-0.18-0.68-0.1-1.01-0.1
				c-4.41-0.01-8.82,0-13.23-0.01C50.52,314.43,50.14,314.49,49.71,314.3z"/>
			<path class="st13" d="M294.64,310.97c0.81-0.15,1.7-0.05,2.59-0.05c0.17,0,0.33,0.13,0.46,0.18c0.22,0.36,0.15,0.71,0.16,1.04
				c0.01,2.74,0,5.49,0,8.23c0,0.3-0.04,0.61,0.08,0.92c0.34,0.14,0.68,0.08,1.01,0.08c3.55,0.01,7.09,0,10.64,0
				c0.37,0,0.73,0.02,1.04,0.03c1.03,0.84,2.53,2.4,2.86,2.96c-0.02,0.29-0.22,0.44-0.47,0.49c-0.21,0.05-0.43,0.06-0.64,0.06
				c-5.67,0-11.35,0-17.02,0c-0.28,0-0.56,0.02-0.88-0.22c-0.04-0.12-0.13-0.31-0.17-0.52c-0.03-0.18-0.01-0.37-0.01-0.55
				c0-3.79,0-7.59,0-11.38C294.28,311.83,294.22,311.38,294.64,310.97z"/>
			<path class="st13" d="M213.57,324.53c-0.28,0.32-0.51,0.4-0.76,0.39c-0.85-0.04-1.71,0.14-2.58-0.15
				c-0.06-0.23-0.13-0.43-0.16-0.63c-0.03-0.21-0.01-0.43-0.01-0.65c0-2.68,0-5.36,0-8.04c0-0.3-0.02-0.6-0.03-0.95
				c-0.22-0.03-0.4-0.06-0.57-0.06c-1.14-0.01-2.28,0-3.42,0c-0.31,0-0.61-0.02-0.95-0.03c-0.89-0.89-1.81-1.76-2.65-2.7
				c-0.08-0.08-0.09-0.22-0.12-0.29c0.05-0.3,0.22-0.43,0.45-0.46c0.24-0.04,0.49-0.05,0.73-0.05c4.74,0,9.49,0,14.23,0
				c0.27,0,0.55,0.03,0.76,0.04c0.45,0.35,2.38,2.21,2.71,2.62c0.09,0.12,0.15,0.26,0.23,0.42c-0.09,0.14-0.17,0.26-0.27,0.43
				c-0.33,0.01-0.67,0.03-1,0.03c-1.85,0-3.7,0-5.54,0c-0.3,0-0.6,0.03-0.94,0.04c-0.11,1.16-0.04,2.26-0.05,3.36
				c-0.01,1.14,0,2.28,0,3.42C213.59,322.36,213.62,323.47,213.57,324.53z"/>
			<path class="st13" d="M172.28,310.97c0.77-0.16,1.63-0.05,2.48-0.06c0.2,0,0.4,0.11,0.55,0.15c0.25,0.37,0.18,0.72,0.18,1.05
				c0.01,1.73,0,3.45,0,5.18c0,2.1,0,4.19,0,6.29c0,0.34-0.02,0.67-0.03,1.04c-0.22,0.11-0.4,0.27-0.59,0.27
				c-0.8,0.02-1.6,0-2.4-0.01c-0.09,0-0.17-0.07-0.32-0.13c-0.06-0.15-0.16-0.34-0.2-0.55c-0.04-0.18-0.01-0.37-0.01-0.55
				c0-3.82,0-7.65,0-11.47C171.95,311.79,171.89,311.38,172.28,310.97z"/>
			<path class="st13" d="M99.05,324.64c-0.22,0.11-0.35,0.24-0.49,0.24c-0.77,0.03-1.54,0.04-2.31,0.03c-0.17,0-0.35-0.1-0.55-0.16
				c-0.06-0.21-0.13-0.41-0.17-0.61c-0.03-0.15-0.01-0.31-0.01-0.46c0-3.82,0-7.65,0-11.47c0-0.4-0.05-0.81,0.28-1.18
				c0.1-0.03,0.25-0.11,0.39-0.11c0.8,0,1.6,0.01,2.4,0.03c0.11,0,0.22,0.1,0.3,0.14c0.21,0.27,0.18,0.55,0.18,0.83
				c0,1.02,0,2.04,0,3.05c0,2.87,0,5.74,0,8.6C99.08,323.9,99.06,324.24,99.05,324.64z"/>
			<path class="st13" d="M248.49,314.36c-0.09-0.23-0.17-0.39-0.23-0.55c0.05-0.29,0.07-0.57,0.14-0.84
				c0.26-1.06,0.9-1.74,1.99-1.94c0.42-0.08,0.86-0.13,1.28-0.13c4.16-0.01,8.32-0.01,12.48,0c0.46,0,0.93,0.05,1.37,0.16
				c0.95,0.22,1.57,0.83,1.81,1.78c0.09,0.35,0.14,0.73,0.14,1.09c0.01,3.36,0.01,6.72,0,10.08c0,0.21-0.05,0.42-0.07,0.64
				c-0.13,0.07-0.23,0.18-0.33,0.19c-0.77,0.04-1.53,0.07-2.3,0.07c-0.2,0-0.41-0.09-0.55-0.13c-0.31-0.3-0.28-0.61-0.28-0.92
				c0-1.05,0-2.1,0-3.14c0-0.31,0-0.61,0-0.95c-0.19-0.05-0.33-0.11-0.47-0.11c-3.7-0.01-7.4-0.01-11.09,0
				c-0.15,0-0.3,0.04-0.5,0.07c-0.02,0.26-0.06,0.5-0.06,0.74c-0.01,1.08,0,2.16-0.01,3.24c0,0.3-0.03,0.61-0.05,0.94
				c-0.22,0.1-0.41,0.26-0.6,0.26c-0.77,0.03-1.54,0.01-2.31,0c-0.12,0-0.23-0.08-0.31-0.11c-0.34-0.31-0.29-0.7-0.29-1.06
				c0-1.66,0-3.33,0-4.99c0-0.52,0-1.05,0-1.57c0-0.28,0-0.56,0.19-0.8c0.17-0.19,0.4-0.25,0.66-0.25c0.25,0,0.49,0,0.74,0
				c4.31,0,8.63,0,12.94,0c0.34,0,0.67,0,1.02,0c0.26-0.54,0.13-1.05,0.1-1.55c-0.34-0.21-0.68-0.12-1.01-0.12
				c-4.28-0.01-8.57,0-12.85,0c-0.34,0-0.68,0-1.02,0C248.86,314.42,248.71,314.39,248.49,314.36z"/>
		</g>
	</g>
</g>
<g id="FC_WHT">
</g>
<g id="GRD_SIG_HZL">
</g>
<g id="GRD_HZL_BLK">
</g>
<g id="GRD_VRT_BLK">
</g>
<g id="FC_BLK">
</g>
<g id="INSIGNIA">
</g>
</svg>
