<?xml version="1.0" encoding="utf-8"?>
<!-- Generator: Adobe Illustrator 28.0.0, SVG Export Plug-In . SVG Version: 6.00 Build 0)  -->
<svg version="1.1" xmlns="http://www.w3.org/2000/svg" xmlns:xlink="http://www.w3.org/1999/xlink" x="0px" y="0px"
	 viewBox="0 0 468 144" style="enable-background:new 0 0 468 144;" xml:space="preserve">
<style type="text/css">
	.st0{display:none;}
	.st1{display:inline;fill:url(#SVGID_1_);}
	.st2{display:inline;}
	.st3{display:inline;fill:#2B3D49;}
	.st4{display:inline;fill:url(#SVGID_00000034088492285538733640000018135504692966613425_);}
	.st5{display:inline;fill:url(#SVGID_00000093878637583161480650000014206067196046705840_);}
	.st6{display:inline;fill:url(#SVGID_00000130616864518056312430000002133846124634100885_);}
	.st7{display:inline;fill:url(#SVGID_00000062892468206434689500000003942651312606024602_);}
	.st8{display:inline;fill:url(#SVGID_00000174590810298082728230000003737808253795940227_);}
	.st9{display:inline;fill:url(#SVGID_00000083768361182040595320000010734268727066198144_);}
	.st10{display:inline;fill:url(#SVGID_00000096055462619580586410000000417586410873233281_);}
	.st11{display:inline;fill:#C3C5C8;}
	.st12{display:inline;fill:url(#SVGID_00000178899203679536441140000016678253924721240979_);}
	.st13{fill:#FFFFFF;}
	.st14{fill:#411F1F;}
	.st15{fill:#C3C5C8;}
	.st16{fill:#2B3D49;}
	.st17{fill:#FFFFFF;stroke:url(#SVGID_00000158723992498604138120000015048410427115019700_);stroke-miterlimit:10;}
	.st18{fill:#F19933;}
	.st19{fill:#D73F22;}
	.st20{fill:#FBE343;}
	.st21{fill:#768591;}
	.st22{fill:url(#SVGID_00000078728432968656935270000015619561415701351563_);}
	.st23{fill:url(#SVGID_00000123432480680520605480000008083334929211583368_);}
	.st24{fill:url(#SVGID_00000048469875126002636940000015957451910798309565_);}
	.st25{fill:url(#SVGID_00000113313150088314796260000002674584004989306546_);}
	.st26{fill:url(#SVGID_00000091710666888268293230000000363634233462280335_);}
	.st27{fill:url(#SVGID_00000148660374025561714580000008459234769847411388_);}
	.st28{fill:url(#SVGID_00000119815958768472287370000010388549753330928817_);}
	.st29{fill:url(#SVGID_00000149375229790066374450000000184385848183074239_);}
	.st30{fill:url(#SVGID_00000009567313606727847340000017205730969227726779_);}
	.st31{fill:url(#SVGID_00000174592867412635029160000000867465964363369618_);}
	.st32{fill:url(#SVGID_00000176028456551317141140000017067714225526694064_);}
	.st33{fill:url(#SVGID_00000162349358878653081860000000673757271772309688_);}
	.st34{fill:url(#SVGID_00000072241529909032272210000007392394149291230604_);}
	.st35{fill:url(#SVGID_00000101067155927197863720000002738251971327642026_);}
	.st36{fill:url(#SVGID_00000102545721890048407900000018372059088165535396_);}
	.st37{fill:none;}
	.st38{fill:url(#SVGID_00000114762566379316524680000000401472316653362093_);}
	.st39{fill:url(#SVGID_00000137122069437394351800000005779616287180130204_);}
	.st40{fill:url(#SVGID_00000108284231709735167380000010920615561131561620_);}
	.st41{fill:url(#SVGID_00000072996822054869027380000009069496448957020587_);}
	.st42{fill:url(#SVGID_00000049199505795889863200000007164455637430404263_);}
	.st43{fill:url(#SVGID_00000057149643157828489040000002143241934479915666_);}
	.st44{fill:url(#SVGID_00000017502433205302621980000011649706123170025348_);}
	.st45{fill:url(#SVGID_00000085953939847217494600000011966152118538386856_);}
	.st46{fill:url(#SVGID_00000119119284393364379380000006539442751424791192_);}
	.st47{fill:url(#SVGID_00000101094683391799749860000006006282962270986129_);}
	.st48{fill:url(#SVGID_00000098913309427628762350000017824190087753917092_);}
	.st49{fill:url(#SVGID_00000162343304976819352840000010427457305400290485_);}
	.st50{fill:url(#SVGID_00000132061420077406024770000002044876340837050796_);}
	.st51{fill:url(#SVGID_00000115507225900064426940000011885294508299488912_);}
	.st52{fill:url(#SVGID_00000170988946539078241260000006490589339455528065_);}
</style>
<g id="BG_COLORS__x26__INFO" class="st0">
	<rect y="0" class="st2" width="468" height="144"/>
	<g id="Layer_15" class="st2">
	</g>
</g>
<g id="INFORMATION">
</g>
<g id="ELEMENTS">
</g>
<g id="GRD_SIG_WHT">
</g>
<g id="GRD_HZL_WHT">
	<g>
		<g>
			<g>
				<path class="st13" d="M66.72,15.68c0.07,0.12,0.15,0.2,0.16,0.29c0.03,0.19,0.02,0.38,0.02,0.57
					c0.02,7.34,0.04,14.68,0.06,22.02c0,0.24-0.02,0.48-0.02,0.68c-0.11,0.1-0.16,0.17-0.23,0.21c-0.94,0.54-1.88,1.06-2.82,1.6
					c-1.68,0.97-3.36,1.96-5.04,2.93c-0.91,0.53-1.83,1.04-2.74,1.57c-1.22,0.7-2.43,1.41-3.65,2.1c-1.59,0.91-3.19,1.81-4.78,2.73
					c-1.64,0.95-3.26,1.92-4.89,2.87c-1.03,0.6-2.07,1.17-3.1,1.76c-0.33,0.19-0.63,0.41-0.98,0.63c-0.01,0.19-0.02,0.38-0.01,0.56
					c0.02,0.3,0.08,0.59,0.08,0.88c0,9.86,0,19.72,0,29.57c0,0.46,0.02,0.92-0.09,1.37c-0.04,0.15,0.01,0.32,0.03,0.52
					c0.2,0.16,0.4,0.35,0.63,0.49c0.96,0.56,1.93,1.09,2.89,1.64c0.91,0.53,1.82,1.07,2.73,1.6c0.86,0.5,1.73,1,2.6,1.49
					c1.82,1.05,3.65,2.11,5.47,3.16c1.76,1.01,3.52,2.01,5.27,3.01c0.91,0.53,1.81,1.07,2.73,1.6c0.98,0.57,1.97,1.13,2.95,1.69
					c0.82,0.47,1.65,0.92,2.47,1.4c0.28,0.16,0.58,0.31,0.79,0.69c0.05,7.66,0.01,15.41,0.01,23.15c0,0.1-0.06,0.2-0.1,0.35
					c-0.17-0.06-0.33-0.08-0.46-0.16c-2.06-1.19-4.12-2.39-6.18-3.58c-2.2-1.27-4.41-2.53-6.61-3.8c-2.93-1.69-5.85-3.38-8.78-5.07
					c-1.76-1.01-3.52-2.01-5.27-3.03c-2.39-1.38-4.76-2.78-7.15-4.16c-1.61-0.94-3.24-1.85-4.85-2.79
					c-2.27-1.32-4.53-2.64-6.79-3.96c-0.79-0.46-1.6-0.91-2.39-1.37c-0.21-0.12-0.4-0.26-0.54-0.35c-0.05-0.1-0.07-0.13-0.08-0.15
					c-0.01-0.02-0.02-0.05-0.02-0.08C18.01,81.52,18,62.72,18,43.93c0-0.05,0.03-0.1,0.07-0.22c0.47-0.26,0.98-0.56,1.51-0.82
					c1.09-0.55,2.1-1.22,3.15-1.83c0.28-0.16,0.57-0.31,0.85-0.48c1.62-0.92,3.23-1.85,4.85-2.78c1.38-0.79,2.77-1.57,4.13-2.4
					c1.45-0.88,2.96-1.66,4.4-2.57c1.12-0.71,2.29-1.32,3.44-1.98c0.87-0.49,1.73-0.99,2.6-1.48c0.98-0.56,1.97-1.12,2.95-1.69
					c1.03-0.6,2.05-1.2,3.08-1.8c0.93-0.54,1.88-1.06,2.81-1.61c1.05-0.61,2.09-1.23,3.14-1.85c0.07-0.04,0.14-0.09,0.21-0.13
					c1.78-0.9,3.46-2,5.2-2.96c1.96-1.08,3.88-2.24,5.82-3.36C66.37,15.9,66.52,15.8,66.72,15.68z"/>
				<path class="st13" d="M127.72,100.24c-0.48,0.26-0.91,0.49-1.33,0.73c-1.17,0.68-2.33,1.37-3.5,2.04
					c-2.55,1.48-5.09,2.96-7.64,4.43c-1.69,0.97-3.38,1.93-5.07,2.9c-1.36,0.78-2.71,1.58-4.07,2.36c-2.81,1.62-5.63,3.23-8.44,4.85
					c-2.51,1.45-5.01,2.9-7.51,4.35c-1.8,1.04-3.6,2.09-5.41,3.13c-1.64,0.95-3.28,1.89-4.92,2.83c-0.28,0.16-0.54,0.33-0.85,0.52
					c-0.06-0.11-0.13-0.2-0.14-0.3c-0.03-0.16-0.02-0.32-0.02-0.49c-0.02-7.47-0.04-14.95-0.06-22.42c0-0.13,0-0.27,0-0.43
					c0.16-0.12,0.3-0.24,0.46-0.33c1.66-0.95,3.33-1.9,5-2.85c1.43-0.82,2.86-1.63,4.29-2.46c1.94-1.12,3.88-2.25,5.82-3.37
					c1.99-1.15,3.97-2.3,5.96-3.45c1.38-0.8,2.76-1.59,4.15-2.38c0.72-0.42,1.45-0.84,2.17-1.26c0.16-0.09,0.28-0.24,0.43-0.36
					c0-10.96,0-21.9,0-32.83c-0.22-0.28-0.49-0.45-0.77-0.61c-0.97-0.54-1.94-1.08-2.89-1.64c-1.45-0.84-2.88-1.71-4.33-2.55
					c-1.17-0.68-2.35-1.33-3.52-2.01c-1.5-0.87-2.98-1.75-4.48-2.61c-0.93-0.54-1.87-1.08-2.81-1.6c-1.06-0.59-2.11-1.21-3.14-1.84
					c-1.1-0.68-2.25-1.27-3.38-1.91c-0.82-0.46-1.65-0.92-2.46-1.4c-0.25-0.15-0.47-0.35-0.7-0.53c-0.02-0.25-0.04-0.47-0.04-0.68
					c0-4.01,0-8.02,0-12.02c0-3.28,0-6.55,0-9.83c0-0.22-0.01-0.44,0.02-0.65c0.02-0.12,0.11-0.23,0.19-0.39
					c0.58,0.32,1.13,0.59,1.66,0.91c1.07,0.63,2.13,1.27,3.21,1.88c1.22,0.69,2.43,1.41,3.65,2.11c1.57,0.9,3.15,1.78,4.71,2.69
					c1.66,0.96,3.3,1.95,4.96,2.91c1.73,1,3.47,1.97,5.2,2.96c0.94,0.54,1.85,1.11,2.79,1.65c0.91,0.53,1.83,1.04,2.74,1.56
					c1.19,0.68,2.39,1.37,3.58,2.06c1.64,0.94,3.28,1.87,4.91,2.82c1.4,0.82,2.8,1.63,4.21,2.42c1.62,0.91,3.22,1.87,4.83,2.81
					c0.65,0.38,1.31,0.75,1.96,1.13c0.2,0.12,0.38,0.29,0.6,0.45C127.75,62.43,127.73,81.3,127.72,100.24z"/>
			</g>
		</g>
		<g>
			<path class="st13" d="M332.77,59.84c-0.4,0-0.75,0-1.11,0c-9.37,0-18.73,0-28.1,0c-0.3,0-0.6,0.02-0.89-0.01
				c-0.6-0.06-0.91-0.35-1.04-0.94c-0.04-0.17-0.04-0.35-0.04-0.53c0-1.37,0-2.74,0-4.12c0-0.43,0.1-0.82,0.31-1.16
				c0.33-0.24,0.66-0.35,1.03-0.35c0.18,0,0.36,0,0.54,0c9.87,0,19.75,0,29.62,0c1.02,0,2.02,0.09,3.01,0.36
				c1.82,0.5,2.99,1.65,3.5,3.48c0.19,0.69,0.33,1.39,0.32,2.11c-0.01,1.04,0.02,2.09-0.01,3.13c-0.02,0.5-0.1,1.01-0.2,1.5
				c-0.27,1.28-0.93,2.31-2,3.07c-0.12,0.08-0.22,0.18-0.37,0.31c0.11,0.11,0.17,0.2,0.26,0.26c1.5,1.02,2.18,2.52,2.29,4.25
				c0.09,1.37,0.04,2.74,0.01,4.11c-0.01,0.72-0.21,1.41-0.47,2.08c-0.54,1.43-1.57,2.36-3.02,2.84c-0.77,0.26-1.56,0.37-2.37,0.41
				c-0.24,0.01-0.48,0.01-0.72,0.01c-9.96,0-19.93,0-29.89,0c-0.5,0-1.02,0.06-1.48-0.29c-0.31-0.34-0.36-0.78-0.36-1.23
				c0.01-1.13,0-2.27,0-3.4c0-3.61,0-7.22,0-10.83c0-0.48-0.01-0.96,0.3-1.39c0.28-0.27,0.65-0.36,1.05-0.37
				c0.24-0.01,0.48,0,0.72,0c9.37,0,18.73,0,28.1,0c0.35,0,0.71,0.05,1.04-0.07C332.91,62.32,332.91,60.68,332.77,59.84z
				 M308.77,70.34c-0.12,1.08-0.09,2.52,0.05,3.18c0.3,0.1,0.63,0.06,0.95,0.06c7.34,0,14.67,0,22.01,0c0.18,0,0.36,0.01,0.54,0
				c0.17-0.01,0.36,0.03,0.49-0.14c0.12-0.93,0.11-2.47-0.04-3.12c-0.13-0.01-0.27-0.04-0.42-0.05
				C329.09,70.18,309.68,70.23,308.77,70.34z"/>
			<path class="st13" d="M275.97,70.31c0.2,0.23,0.33,0.42,0.49,0.58c1.47,1.48,2.95,2.96,4.43,4.43c1.14,1.14,2.28,2.28,3.42,3.42
				c0.26,0.25,0.51,0.5,0.56,0.89c-0.21,0.76-0.43,0.97-1.12,1.04c-0.12,0.01-0.24,0.01-0.36,0.01c-1.76,0-3.52,0-5.28,0
				c-0.15,0-0.3,0.01-0.45-0.01c-0.39-0.05-0.75-0.17-1.03-0.48c-0.18-0.2-0.38-0.38-0.57-0.57c-2.87-2.87-5.74-5.74-8.6-8.61
				c-0.23-0.23-0.43-0.49-0.6-0.69c-0.98-0.11-1.84-0.04-2.7-0.06c-0.86-0.01-1.73,0-2.6,0c-0.87,0-1.73,0-2.6,0s-1.73,0-2.6,0
				c-0.86,0-1.71-0.02-2.61,0.02c-0.01,0.37-0.04,0.66-0.04,0.95c0,2.6,0,5.19,0,7.79c0,0.48-0.01,0.96-0.34,1.35
				c-0.3,0.24-0.65,0.3-1.01,0.3c-1.46,0-2.92,0-4.39,0c-0.37,0-0.71-0.06-1.03-0.29c-0.26-0.3-0.36-0.66-0.35-1.07
				c0-0.12,0-0.24,0-0.36c0-4.68,0-9.37,0-14.05c0-0.48-0.01-0.96,0.3-1.4c0.28-0.27,0.65-0.35,1.05-0.36c0.24-0.01,0.48,0,0.72,0
				c9.34,0,18.67,0,28.01,0c0.36,0,0.71,0,1.09,0c0.05-0.15,0.12-0.26,0.12-0.37c0.01-0.84,0.01-1.67,0-2.51
				c0-0.11-0.04-0.23-0.06-0.36c-0.13-0.03-0.24-0.07-0.36-0.08c-0.3-0.01-0.6-0.01-0.89-0.01c-9.34,0-18.67,0-28.01,0
				c-0.3,0-0.6,0.02-0.89-0.02c-0.59-0.06-0.91-0.36-1.03-0.95c-0.03-0.17-0.04-0.36-0.04-0.53c0-1.34,0-2.68,0-4.03
				c0-0.43,0.05-0.83,0.3-1.21c0.29-0.28,0.66-0.37,1.06-0.37c0.15,0,0.3,0,0.45,0c9.93,0,19.87,0,29.8,0c0.99,0,1.96,0.1,2.92,0.36
				c1.82,0.51,2.99,1.66,3.49,3.49c0.18,0.66,0.32,1.33,0.31,2.03c-0.01,1.94-0.01,3.88,0,5.82c0,0.75-0.14,1.48-0.36,2.2
				c-0.52,1.7-1.65,2.81-3.35,3.29c-0.83,0.24-1.69,0.37-2.56,0.35c-0.72-0.02-1.43-0.01-2.15,0
				C276.36,70.27,276.21,70.29,275.97,70.31z"/>
			<path class="st13" d="M375.79,80.67c-4.21,0-8.42,0-12.62,0c-0.81,0-1.61-0.07-2.4-0.27c-2.17-0.53-3.45-1.92-3.86-4.1
				c-0.12-0.61-0.19-1.24-0.2-1.86c-0.02-5.16-0.01-10.32-0.01-15.49c0-0.9,0.13-1.79,0.41-2.64c0.52-1.58,1.58-2.64,3.16-3.16
				c0.97-0.32,1.98-0.43,3-0.43c1.79,0,3.58,0,5.37,0c6.54,0,13.07,0,19.61,0c1.02,0,2.03,0.09,3.01,0.38
				c1.78,0.51,2.92,1.66,3.43,3.44c0.26,0.93,0.34,1.88,0.34,2.83c0,3.01,0,6.03,0,9.04c0,1.91,0,3.82,0,5.73
				c0,0.93-0.08,1.85-0.34,2.74c-0.5,1.75-1.62,2.88-3.35,3.41c-0.89,0.27-1.81,0.37-2.74,0.37
				C384.32,80.67,380.06,80.67,375.79,80.67z M387.88,73.51c0.04-0.11,0.09-0.19,0.09-0.28c0-4.36,0-8.71,0-13.07
				c0-0.08-0.05-0.16-0.09-0.27c-0.35-0.11-0.71-0.06-1.06-0.06c-7.28,0-14.56,0-21.84,0c-0.21,0-0.42-0.01-0.63,0
				c-0.17,0.01-0.34,0.05-0.54,0.08c-0.01,0.33-0.03,0.63-0.03,0.92c0,2,0,4,0,6c0,1.97,0,3.94,0,5.91c0,0.26-0.08,0.54,0.14,0.76
				c0.89,0.12,19.18,0.17,23.44,0.07C387.53,73.57,387.71,73.53,387.88,73.51z"/>
			<path class="st13" d="M229.6,80.42c-0.37,0.2-0.75,0.26-1.14,0.26c-1.37-0.01-2.74-0.01-4.12,0c-0.37,0-0.71-0.05-1.01-0.24
				c-0.29-0.24-0.4-0.54-0.4-0.88c0-0.24,0-0.48,0-0.72c0-2.54,0-5.07,0-7.61c0-0.29-0.02-0.58-0.04-0.89
				c-0.17-0.03-0.28-0.07-0.39-0.07c-1.78-0.08-22.92-0.02-23.63,0.06c-0.19,0.22-0.11,0.5-0.11,0.76c-0.01,2.6,0,5.19-0.01,7.79
				c0,0.33-0.04,0.65-0.08,0.97c-0.06,0.44-0.35,0.68-0.77,0.77c-0.2,0.04-0.41,0.05-0.62,0.05c-1.4,0-2.8,0-4.21,0
				c-0.4,0-0.77-0.04-1.11-0.32c-0.26-0.3-0.33-0.68-0.32-1.07c0-0.51,0-1.01,0-1.52c0-4.3,0-8.59,0-12.89
				c0-0.48-0.01-0.96,0.31-1.37c0.28-0.25,0.62-0.33,0.98-0.34c0.27-0.01,0.54,0,0.81,0c9.34,0,18.68,0,28.02,0
				c0.35,0,0.71,0.06,1.05-0.06c0.15-0.62,0.17-2.12,0.04-3.1c-0.12-0.18-0.31-0.14-0.49-0.15c-0.27-0.01-0.54,0-0.81,0
				c-9.31,0-18.62,0-27.93,0c-0.27,0-0.54,0-0.81-0.01c-0.34-0.01-0.65-0.1-0.91-0.38c-0.24-0.33-0.32-0.74-0.25-1.16
				c0.1-0.59,0.18-1.18,0.34-1.75c0.49-1.79,1.66-2.92,3.43-3.44c0.95-0.28,1.93-0.37,2.92-0.37c3.73,0,7.46,0,11.19,0
				c4.56,0,9.13,0,13.69,0c0.99,0,1.96,0.1,2.92,0.36c1.82,0.51,2.98,1.67,3.48,3.49c0.19,0.69,0.32,1.39,0.32,2.12
				c0,0.3,0.01,0.6,0.01,0.89c0,6.44,0,12.89,0,19.33c0,0.21,0,0.42-0.01,0.63C229.95,79.87,229.87,80.15,229.6,80.42z"/>
			<path class="st13" d="M174.51,59.57c-0.31,0.21-0.6,0.26-0.9,0.26c-0.27,0-0.54,0-0.81,0c-9.34,0-18.67,0-28.01,0
				c-0.35,0-0.71-0.04-1.04,0.06c-0.13,0.68-0.18,6.55-0.11,12.9c0,0.23,0.04,0.46,0.05,0.7c0.39,0.12,0.75,0.08,1.1,0.08
				c6.23,0,12.47,0,18.7,0c1.49,0,2.98,0,4.47,0c0.42,0,0.84,0.01,1.29,0.23c0.14,0.14,0.34,0.32,0.53,0.51
				c1.46,1.45,2.91,2.91,4.37,4.36c0.15,0.15,0.3,0.29,0.43,0.45c0.36,0.48,0.23,1.1-0.31,1.36c-0.21,0.1-0.45,0.14-0.69,0.18
				c-0.2,0.03-0.42,0.01-0.63,0.01c-9.96,0-19.93,0-29.89,0c-0.99,0-1.96-0.1-2.91-0.39c-1.7-0.53-2.79-1.68-3.28-3.38
				c-0.25-0.86-0.37-1.75-0.37-2.65c0-5.04,0-10.08,0-15.12c0-0.87,0.13-1.73,0.36-2.56c0.5-1.78,1.64-2.94,3.41-3.47
				c0.92-0.27,1.87-0.38,2.83-0.38c1.88,0,3.76,0,5.64,0c6.29,0,12.59,0,18.88,0c0.24,0,0.48,0,0.72,0c0.47,0,0.87,0.16,1.21,0.49
				c0.11,0.11,0.21,0.21,0.32,0.32c1.41,1.41,2.83,2.83,4.24,4.24c0.08,0.08,0.17,0.16,0.25,0.25
				C174.88,58.58,174.9,58.81,174.51,59.57z"/>
			<path class="st13" d="M442.87,69c0.15-0.35,0.08-0.68,0.08-1c0.01-4.51,0-9.01,0.01-13.52c0-0.38,0.03-0.77,0.05-1.07
				c0.36-0.57,0.84-0.68,1.37-0.68c1.19,0,2.39,0,3.58,0c0.24,0,0.48-0.02,0.72,0.01c0.23,0.02,0.47,0.07,0.7,0.14
				c0.27,0.09,0.47,0.28,0.52,0.56c0.06,0.29,0.1,0.59,0.1,0.88c0.01,8.24,0.01,16.47,0,24.71c0,0.3-0.02,0.6-0.09,0.88
				c-0.12,0.49-0.52,0.75-1.02,0.64c-0.31-0.07-0.62-0.21-0.9-0.37c-2.56-1.35-5.11-2.72-7.66-4.08c-6.95-3.7-13.9-7.4-20.85-11.1
				c-0.2-0.11-0.37-0.31-0.7-0.21c0,0.13,0,0.27,0,0.41c0,4.54,0,9.07,0,13.61c0,0.21,0.01,0.42-0.01,0.63
				c-0.03,0.36-0.09,0.71-0.41,0.98c-0.27,0.17-0.58,0.24-0.92,0.23c-1.49,0-2.98,0-4.48,0c-0.34,0-0.65-0.08-0.93-0.28
				c-0.25-0.27-0.34-0.61-0.34-0.98c0-0.12,0-0.24,0-0.36c0-8.18,0-16.35,0-24.53c0-0.27,0-0.54,0.05-0.8
				c0.16-0.8,0.73-1.08,1.47-0.75c0.24,0.11,0.48,0.25,0.71,0.38c9.38,5.1,18.77,10.2,28.15,15.29
				C442.31,68.78,442.55,68.96,442.87,69z"/>
			<path class="st13" d="M256.08,99.36c0-0.55,0-1.02,0-1.53c-0.2-0.03-0.37-0.08-0.54-0.08c-1.07-0.01-2.15,0-3.22,0
				c-0.3,0-0.59,0-0.84,0c-0.74-0.52-2.52-2.33-2.88-2.91c0.07-0.13,0.16-0.28,0.22-0.39c0.36-0.19,0.69-0.12,1.01-0.12
				c3.1,0.01,6.2,0.03,9.3,0.05c0.08,0,0.15,0.09,0.26,0.15c0.04,0.15,0.11,0.32,0.11,0.48c0.01,2.42,0,4.83,0,7.25
				c0,0.09-0.03,0.17-0.05,0.25c-0.15,0.24-0.37,0.31-0.62,0.33c-0.21,0.01-0.42,0.01-0.63,0.01c-4.62,0-9.24,0.01-13.87-0.01
				c-0.5,0-1.01-0.06-1.5-0.17c-0.92-0.2-1.53-0.8-1.75-1.72c-0.11-0.46-0.18-0.94-0.18-1.41c-0.02-2.33,0-4.65-0.01-6.98
				c0-0.51,0.08-1.01,0.22-1.5c0.26-0.87,0.84-1.43,1.73-1.63c0.4-0.09,0.83-0.15,1.24-0.15c4-0.01,7.99-0.01,11.99-0.01
				c0.21,0,0.41,0.03,0.68,0.05c0.3,0.29,0.62,0.59,0.94,0.91c0.32,0.31,0.64,0.62,0.95,0.95c0.3,0.32,0.7,0.57,0.85,1.06
				c-0.06,0.11-0.13,0.23-0.23,0.41c-0.35,0.01-0.7,0.04-1.05,0.04c-4.26,0-8.53,0-12.79,0.01c-0.32,0-0.65-0.07-1,0.09
				c-0.02,0.13-0.06,0.27-0.07,0.41c-0.06,1.42-0.02,5.44,0.07,6.13c0.12,0.03,0.26,0.08,0.39,0.08c3.61,0,7.22,0,10.83,0
				C255.76,99.41,255.87,99.38,256.08,99.36z"/>
			<path class="st13" d="M167.2,92.56c-0.39-0.69-0.17-1.42-0.22-2.12c-0.03-0.36-0.02-0.72,0.23-1.01
				c0.27-0.21,0.58-0.16,0.87-0.16c1.46,0,2.92,0,4.39,0c3.22,0,6.44,0,9.67,0.01c0.47,0,0.96,0.03,1.42,0.12
				c1.04,0.2,1.69,0.84,1.92,1.88c0.07,0.32,0.1,0.65,0.1,0.97c0.01,2.54,0.01,5.07,0,7.61c0,0.38-0.06,0.77-0.15,1.15
				c-0.22,0.89-0.82,1.45-1.7,1.66c-0.49,0.12-1,0.17-1.5,0.17c-4.06,0.01-8.12,0.01-12.17,0.01c-0.69,0-1.37,0-2.06,0
				c-0.18,0-0.36-0.02-0.53-0.04c-0.08-0.01-0.16-0.07-0.23-0.11c-0.22-0.21-0.25-0.48-0.25-0.75c0-2.24,0-4.48,0.01-6.71
				c0-0.23,0.08-0.46,0.12-0.69c0.21-0.08,0.37-0.2,0.53-0.2c0.86,0,1.72-0.1,2.5,0.04c0.33,0.33,0.29,0.67,0.3,1
				c0,1.01,0,2.03,0,3.04c0,0.29-0.04,0.6,0.08,0.92c0.13,0.03,0.27,0.08,0.42,0.08c3.58,0,7.16,0,10.74,0
				c0.12,0,0.23-0.02,0.4-0.04c0.03-0.14,0.09-0.28,0.09-0.41c0.01-1.94,0-3.88,0-5.82c0-0.11-0.03-0.23-0.05-0.35
				c-0.33-0.17-0.66-0.1-0.98-0.1c-4.27-0.01-8.53,0-12.8-0.01C167.98,92.68,167.62,92.75,167.2,92.56z"/>
			<path class="st13" d="M404.17,89.34c0.78-0.14,1.65-0.05,2.5-0.04c0.16,0,0.32,0.12,0.44,0.17c0.21,0.35,0.15,0.69,0.15,1.01
				c0,2.66,0,5.31,0,7.97c0,0.29-0.04,0.59,0.08,0.89c0.33,0.14,0.66,0.08,0.98,0.08c3.43,0,6.86,0,10.29,0
				c0.36,0,0.71,0.02,1.01,0.03c0.99,0.81,2.45,2.32,2.77,2.86c-0.02,0.28-0.21,0.42-0.46,0.48c-0.2,0.04-0.41,0.05-0.62,0.05
				c-5.49,0-10.98,0-16.47,0c-0.27,0-0.54,0.02-0.85-0.21c-0.04-0.12-0.13-0.3-0.17-0.5c-0.03-0.17-0.01-0.36-0.01-0.54
				c0-3.67,0-7.34,0-11.01C403.83,90.17,403.77,89.74,404.17,89.34z"/>
			<path class="st13" d="M325.74,102.46c-0.27,0.31-0.49,0.39-0.74,0.38c-0.82-0.04-1.66,0.13-2.5-0.14
				c-0.06-0.22-0.13-0.42-0.15-0.61c-0.03-0.21-0.01-0.42-0.01-0.63c0-2.59,0-5.19,0-7.78c0-0.29-0.02-0.58-0.03-0.92
				c-0.22-0.02-0.39-0.06-0.56-0.06c-1.1-0.01-2.21,0-3.31,0c-0.3,0-0.59-0.02-0.92-0.03c-0.86-0.86-1.75-1.7-2.57-2.61
				c-0.07-0.08-0.09-0.21-0.12-0.28c0.05-0.29,0.21-0.41,0.43-0.45c0.23-0.04,0.47-0.05,0.71-0.05c4.59,0,9.18,0,13.77,0
				c0.27,0,0.53,0.02,0.73,0.03c0.44,0.33,2.31,2.14,2.62,2.53c0.09,0.11,0.14,0.25,0.22,0.4c-0.08,0.13-0.16,0.25-0.26,0.41
				c-0.32,0.01-0.65,0.03-0.97,0.03c-1.79,0-3.58,0-5.36,0c-0.29,0-0.58,0.03-0.91,0.04c-0.11,1.12-0.04,2.19-0.05,3.25
				c-0.01,1.1,0,2.21,0,3.31C325.76,100.36,325.79,101.43,325.74,102.46z"/>
			<path class="st13" d="M285.79,89.34c0.74-0.15,1.58-0.05,2.4-0.06c0.19,0,0.39,0.1,0.53,0.14c0.24,0.36,0.17,0.69,0.18,1.02
				c0.01,1.67,0,3.34,0,5.01c0,2.03,0,4.06,0,6.09c0,0.32-0.02,0.65-0.03,1.01c-0.21,0.1-0.39,0.26-0.57,0.26
				c-0.77,0.02-1.55,0-2.32-0.01c-0.08,0-0.16-0.06-0.31-0.12c-0.06-0.15-0.15-0.33-0.19-0.53c-0.04-0.17-0.01-0.36-0.01-0.54
				c0-3.7,0-7.4,0-11.1C285.47,90.13,285.41,89.73,285.79,89.34z"/>
			<path class="st13" d="M214.94,102.56c-0.21,0.11-0.34,0.23-0.47,0.23c-0.74,0.03-1.49,0.04-2.23,0.03
				c-0.17,0-0.33-0.09-0.54-0.16c-0.06-0.2-0.13-0.4-0.16-0.59c-0.03-0.14-0.01-0.3-0.01-0.45c0-3.7,0-7.4,0-11.1
				c0-0.38-0.05-0.78,0.27-1.14c0.1-0.03,0.24-0.11,0.38-0.11c0.77,0,1.55,0.01,2.32,0.03c0.11,0,0.21,0.1,0.29,0.13
				c0.21,0.26,0.17,0.54,0.17,0.8c0,0.98,0,1.97,0,2.95c0,2.77,0,5.55,0,8.32C214.97,101.85,214.95,102.18,214.94,102.56z"/>
			<path class="st13" d="M359.53,92.62c-0.09-0.22-0.16-0.38-0.22-0.53c0.05-0.28,0.07-0.55,0.13-0.81
				c0.25-1.02,0.87-1.68,1.92-1.88c0.41-0.08,0.83-0.12,1.24-0.12c4.03-0.01,8.05-0.01,12.08,0c0.44,0,0.9,0.05,1.33,0.15
				c0.92,0.21,1.52,0.8,1.75,1.72c0.09,0.34,0.13,0.71,0.13,1.06c0.01,3.25,0.01,6.5,0,9.75c0,0.2-0.04,0.41-0.07,0.62
				c-0.12,0.07-0.22,0.18-0.32,0.18c-0.74,0.04-1.48,0.06-2.23,0.07c-0.2,0-0.4-0.09-0.53-0.12c-0.3-0.29-0.27-0.59-0.27-0.89
				c0-1.01,0-2.03,0-3.04c0-0.3,0-0.59,0-0.92c-0.19-0.04-0.32-0.11-0.46-0.11c-3.58-0.01-7.16-0.01-10.73,0
				c-0.14,0-0.29,0.04-0.48,0.06c-0.02,0.25-0.06,0.48-0.06,0.71c-0.01,1.04,0,2.09-0.01,3.13c0,0.29-0.03,0.59-0.05,0.91
				c-0.22,0.1-0.4,0.25-0.58,0.25c-0.74,0.02-1.49,0.01-2.23,0c-0.11,0-0.22-0.08-0.3-0.1c-0.33-0.3-0.28-0.67-0.28-1.03
				c0-1.61,0-3.22,0-4.83c0-0.51,0-1.01,0-1.52c0-0.27,0-0.54,0.18-0.78c0.17-0.18,0.39-0.24,0.64-0.24c0.24,0,0.48,0,0.72,0
				c4.17,0,8.35,0,12.52,0c0.33,0,0.65,0,0.99,0c0.25-0.52,0.13-1.01,0.1-1.5c-0.33-0.21-0.66-0.12-0.98-0.12
				c-4.14-0.01-8.29,0-12.43,0c-0.33,0-0.66,0-0.98,0C359.89,92.68,359.74,92.65,359.53,92.62z"/>
		</g>
	</g>
</g>
<g id="GRD_VRT_WHT">
</g>
<g id="FC_WHT">
</g>
<g id="GRD_SIG_HZL">
</g>
<g id="GRD_HZL_BLK">
</g>
<g id="GRD_VRT_BLK">
</g>
<g id="FC_BLK">
</g>
<g id="INSIGNIA">
</g>
</svg>
